<?xml version="1.0" encoding="UTF-8"?>
<svg version="1.1" xmlns="http://www.w3.org/2000/svg" width="146" height="58">
<path d="M0 0 C48.18 0 96.36 0 146 0 C146 19.14 146 38.28 146 58 C97.82 58 49.64 58 0 58 C0 38.86 0 19.72 0 0 Z " fill="#F3F3F5" transform="translate(0,0)"/>
<path d="M0 0 C1.79244141 0.01740234 1.79244141 0.01740234 3.62109375 0.03515625 C5.41740234 0.04869141 5.41740234 0.04869141 7.25 0.0625 C8.17683594 0.07410156 9.10367188 0.08570313 10.05859375 0.09765625 C9.58128537 1.55659885 9.10168333 3.01479121 8.62109375 4.47265625 C8.35425781 5.28476562 8.08742188 6.096875 7.8125 6.93359375 C7.05859375 9.09765625 7.05859375 9.09765625 6.05859375 11.09765625 C5.49346255 16.63594206 6.71788203 20.16425104 9.18359375 24.984375 C10.05859375 27.09765625 10.05859375 27.09765625 10.05859375 31.09765625 C-1.76950134 31.95892531 -1.76950134 31.95892531 -5.50390625 28.78515625 C-6.30828125 27.89828125 -7.11265625 27.01140625 -7.94140625 26.09765625 C-8.47378906 25.68515625 -9.00617187 25.27265625 -9.5546875 24.84765625 C-12.31170083 21.36838309 -11.5737329 16.88199282 -11.5078125 12.63671875 C-10.64937619 7.27297189 -8.0149841 4.48742008 -3.94140625 1.09765625 C-2.94140625 0.09765625 -2.94140625 0.09765625 0 0 Z " fill="#E18032" transform="translate(26.94140625,11.90234375)"/>
<path d="M0 0 C0.94875 0.04125 1.8975 0.0825 2.875 0.125 C2.875 0.785 2.875 1.445 2.875 2.125 C4.525 2.125 6.175 2.125 7.875 2.125 C8.205 3.775 8.535 5.425 8.875 7.125 C13.495 7.125 18.115 7.125 22.875 7.125 C22.875 8.115 22.875 9.105 22.875 10.125 C22.23046875 10.33898438 21.5859375 10.55296875 20.921875 10.7734375 C18.59660885 11.9723523 18.59660885 11.9723523 18.265625 14.7265625 C18.19601563 16.22316406 18.19601563 16.22316406 18.125 17.75 C18.06828125 18.75289062 18.0115625 19.75578125 17.953125 20.7890625 C17.92734375 21.55992188 17.9015625 22.33078125 17.875 23.125 C16.12534642 23.17929959 14.37520213 23.21792823 12.625 23.25 C11.65046875 23.27320312 10.6759375 23.29640625 9.671875 23.3203125 C6.875 23.125 6.875 23.125 2.875 21.125 C2.875 17.825 2.875 14.525 2.875 11.125 C2.215 11.125 1.555 11.125 0.875 11.125 C0.875 14.755 0.875 18.385 0.875 22.125 C-1.105 22.125 -3.085 22.125 -5.125 22.125 C-5.18290353 18.83340684 -5.21856261 15.54194397 -5.25 12.25 C-5.26675781 11.31285156 -5.28351562 10.37570313 -5.30078125 9.41015625 C-5.31044922 8.06630859 -5.31044922 8.06630859 -5.3203125 6.6953125 C-5.33078613 5.86789551 -5.34125977 5.04047852 -5.35205078 4.18798828 C-4.94620566 0.50047077 -3.51478882 0.14059155 0 0 Z " fill="#B1B1B3" transform="translate(56.125,12.875)"/>
<path d="M0 0 C0.33 0.99 0.66 1.98 1 3 C1.474375 3.45375 1.94875 3.9075 2.4375 4.375 C5.53730071 7.59879274 6 10.61516387 6 15 C-5.81521135 15.86033092 -5.81521135 15.86033092 -9.625 12.8125 C-11.86478765 10.16011988 -12.82642844 8.2030967 -14 5 C-12.23244474 4.15973604 -10.46082737 3.32801278 -8.6875 2.5 C-7.70136719 2.0359375 -6.71523438 1.571875 -5.69921875 1.09375 C-3 0 -3 0 0 0 Z " fill="#C93D43" transform="translate(31,28)"/>
<path d="M0 0 C0.94875 0.04125 1.8975 0.0825 2.875 0.125 C2.875 0.785 2.875 1.445 2.875 2.125 C4.525 2.125 6.175 2.125 7.875 2.125 C8.205 3.775 8.535 5.425 8.875 7.125 C9.865 7.125 10.855 7.125 11.875 7.125 C11.545 8.115 11.215 9.105 10.875 10.125 C10.875 9.465 10.875 8.805 10.875 8.125 C9.555 7.795 8.235 7.465 6.875 7.125 C6.875 6.135 6.875 5.145 6.875 4.125 C6.215 4.125 5.555 4.125 4.875 4.125 C4.875 5.115 4.875 6.105 4.875 7.125 C3.885 7.125 2.895 7.125 1.875 7.125 C1.875 8.115 1.875 9.105 1.875 10.125 C2.535 10.125 3.195 10.125 3.875 10.125 C4.205 13.755 4.535 17.385 4.875 21.125 C4.215 21.125 3.555 21.125 2.875 21.125 C2.875 17.825 2.875 14.525 2.875 11.125 C2.215 11.125 1.555 11.125 0.875 11.125 C0.875 14.755 0.875 18.385 0.875 22.125 C-1.105 22.125 -3.085 22.125 -5.125 22.125 C-5.18290353 18.83340684 -5.21856261 15.54194397 -5.25 12.25 C-5.26675781 11.31285156 -5.28351562 10.37570313 -5.30078125 9.41015625 C-5.31044922 8.06630859 -5.31044922 8.06630859 -5.3203125 6.6953125 C-5.33078613 5.86789551 -5.34125977 5.04047852 -5.35205078 4.18798828 C-4.94620566 0.50047077 -3.51478882 0.14059155 0 0 Z " fill="#9A9B9C" transform="translate(56.125,12.875)"/>
<path d="M0 0 C1.32 0 2.64 0 4 0 C4.33 3.3 4.66 6.6 5 10 C6.32 10.33 7.64 10.66 9 11 C9 7.37 9 3.74 9 0 C10.32 0 11.64 0 13 0 C13 4.62 13 9.24 13 14 C3.72265625 14.09765625 3.72265625 14.09765625 1 14 C0 13 0 13 -0.09765625 10.05859375 C-0.08605469 8.86363281 -0.07445313 7.66867188 -0.0625 6.4375 C-0.05347656 5.23996094 -0.04445313 4.04242188 -0.03515625 2.80859375 C-0.02355469 1.88175781 -0.01195313 0.95492188 0 0 Z " fill="#1E1E1E" transform="translate(81,21)"/>
<path d="M0 0 C0 1.32 0 2.64 0 4 C-1.98 4 -3.96 4 -6 4 C-5.67 5.98 -5.34 7.96 -5 10 C-2.03 10.495 -2.03 10.495 1 11 C0.67 12.32 0.34 13.64 0 15 C-3.43119989 15.19795384 -6.20408888 15.30611966 -9.4375 14.0625 C-11.65558023 11.13463409 -11.56044045 8.69906049 -11.37890625 5.09765625 C-11 3 -11 3 -9.4375 0.9375 C-6.20408888 -0.30611966 -3.43119989 -0.19795384 0 0 Z " fill="#393939" transform="translate(48,20)"/>
<path d="M0 0 C1.134375 0.020625 2.26875 0.04125 3.4375 0.0625 C3.7675 1.0525 4.0975 2.0425 4.4375 3.0625 C2.7875 3.0625 1.1375 3.0625 -0.5625 3.0625 C1.56530579 5.40308637 3.55312221 6.76950306 6.4375 8.0625 C6.625 10.4375 6.625 10.4375 6.4375 13.0625 C3.34861478 15.12175681 2.72814073 15.3015374 -0.75 15.1875 C-2.6371875 15.125625 -2.6371875 15.125625 -4.5625 15.0625 C-4.5625 13.7425 -4.5625 12.4225 -4.5625 11.0625 C-1.5925 11.5575 -1.5925 11.5575 1.4375 12.0625 C-0.49504772 10.0379262 -2.19408688 8.64144208 -4.5625 7.0625 C-4.8125 4 -4.8125 4 -4.5625 1.0625 C-3.5625 0.0625 -3.5625 0.0625 0 0 Z " fill="#252626" transform="translate(101.5625,19.9375)"/>
<path d="M0 0 C4.29 0 8.58 0 13 0 C9.85714286 9.57142857 9.85714286 9.57142857 8 14 C3.30028065 10.30736337 2.0068283 5.44710538 0 0 Z " fill="#F2EA14" transform="translate(24,12)"/>
<path d="M0 0 C1.00484204 1.95585325 2.00373805 3.91476237 3 5.875 C3.556875 6.96554688 4.11375 8.05609375 4.6875 9.1796875 C6 12 6 12 6 14 C2.33827525 13.37321829 -0.8818995 12.35548154 -4.3125 10.9375 C-5.63701172 10.39416016 -5.63701172 10.39416016 -6.98828125 9.83984375 C-7.65214844 9.56269531 -8.31601562 9.28554688 -9 9 C-4 0 -4 0 0 0 Z " fill="#88C03E" transform="translate(25,13)"/>
<path d="M0 0 C-1.98 3.96 -3.96 7.92 -6 12 C-12.04651163 9.58139535 -12.04651163 9.58139535 -14 6 C-13 3 -13 3 -10.8203125 1.796875 C-9.93085938 1.45140625 -9.04140625 1.1059375 -8.125 0.75 C-7.24070312 0.39421875 -6.35640625 0.0384375 -5.4453125 -0.328125 C-3 -1 -3 -1 0 0 Z " fill="#E62C37" transform="translate(31,29)"/>
<path d="M0 0 C0.66 0 1.32 0 2 0 C2.33 0.99 2.66 1.98 3 3 C3.99 3.33 4.98 3.66 6 4 C6 4.66 6 5.32 6 6 C5.01 6 4.02 6 3 6 C3 8.97 3 11.94 3 15 C4.32 15 5.64 15 7 15 C7 15.99 7 16.98 7 18 C4.69 18 2.38 18 0 18 C-1.26237731 15.47524538 -1.09856404 13.68799534 -1.0625 10.875 C-1.05347656 9.96492188 -1.04445312 9.05484375 -1.03515625 8.1171875 C-1.02355469 7.41851562 -1.01195312 6.71984375 -1 6 C-1.66 6 -2.32 6 -3 6 C-3 5.01 -3 4.02 -3 3 C-2.01 3 -1.02 3 0 3 C0 2.01 0 1.02 0 0 Z " fill="#181818" transform="translate(61,17)"/>
<path d="M0 0 C0.99 0 1.98 0 3 0 C3 4.95 3 9.9 3 15 C2.01 14.67 1.02 14.34 0 14 C0.33 13.01 0.66 12.02 1 11 C-0.4540625 11.0309375 -0.4540625 11.0309375 -1.9375 11.0625 C-5 11 -5 11 -6 10 C-6.04080783 8.00041636 -6.04254356 5.99954746 -6 4 C-4.02 3.67 -2.04 3.34 0 3 C0 2.01 0 1.02 0 0 Z " fill="#E0E1E3" transform="translate(48,20)"/>
<path d="M0 0 C0.99 0 1.98 0 3 0 C3 0.99 3 1.98 3 3 C2.35546875 3.22429688 1.7109375 3.44859375 1.046875 3.6796875 C-1.24388852 4.82889456 -1.24388852 4.82889456 -1.609375 7.3828125 C-1.65578125 8.28773437 -1.7021875 9.19265625 -1.75 10.125 C-1.80671875 11.03507812 -1.8634375 11.94515625 -1.921875 12.8828125 C-1.94765625 13.58148438 -1.9734375 14.28015625 -2 15 C-3.32 15 -4.64 15 -6 15 C-6 10.38 -6 5.76 -6 1 C-4.35 1 -2.7 1 -1 1 C-0.67 0.67 -0.34 0.34 0 0 Z " fill="#181818" transform="translate(76,20)"/>
<path d="M0 0 C1.32 0 2.64 0 4 0 C4 4.62 4 9.24 4 14 C3.01 14 2.02 14 1 14 C-0.04976964 10.85069107 -0.10131595 8.61185544 -0.0625 5.3125 C-0.05347656 4.31863281 -0.04445313 3.32476563 -0.03515625 2.30078125 C-0.02355469 1.54152344 -0.01195313 0.78226563 0 0 Z " fill="#131314" transform="translate(90,21)"/>
<path d="M0 0 C1.670625 0.061875 1.670625 0.061875 3.375 0.125 C3.375 1.445 3.375 2.765 3.375 4.125 C1.704375 4.5271875 1.704375 4.5271875 0 4.9375 C-3.84340951 5.78309019 -3.84340951 5.78309019 -5.625 9.125 C-5.75 5.75 -5.75 5.75 -5.625 2.125 C-3.625 0.125 -3.625 0.125 0 0 Z " fill="#262626" transform="translate(44.625,19.875)"/>
<path d="M0 0 C0.99 0 1.98 0 3 0 C3 4.29 3 8.58 3 13 C2.01 13 1.02 13 0 13 C0 8.71 0 4.42 0 0 Z " fill="#080808" transform="translate(52,21)"/>
<path d="M0 0 C0.33 0 0.66 0 1 0 C1.0928125 1.1446875 1.0928125 1.1446875 1.1875 2.3125 C2.2547656 5.84268623 3.8475042 6.30250226 7 8 C7 8.66 7 9.32 7 10 C4.03 9.505 4.03 9.505 1 9 C0.67 9.99 0.34 10.98 0 12 C0 8.04 0 4.08 0 0 Z " fill="#CFD0D2" transform="translate(96,22)"/>
<path d="M0 0 C0.66 0 1.32 0 2 0 C0.44499019 3.81684226 -2.03595495 6.19195732 -5 9 C-5.66 8.67 -6.32 8.34 -7 8 C-5.88200014 6.66079162 -4.75538103 5.32877444 -3.625 4 C-2.68527344 2.88625 -2.68527344 2.88625 -1.7265625 1.75 C-1.15679687 1.1725 -0.58703125 0.595 0 0 Z " fill="#93C75A" transform="translate(23,13)"/>
<path d="M0 0 C0.99 0.33 1.98 0.66 3 1 C2.34 2.98 1.68 4.96 1 7 C-1.475 6.01 -1.475 6.01 -4 5 C-4 4.34 -4 3.68 -4 3 C-2.35 3 -0.7 3 1 3 C0.67 2.01 0.34 1.02 0 0 Z " fill="#9FA0A1" transform="translate(105,20)"/>
<path d="M0 0 C0.99 0 1.98 0 3 0 C3 2.31 3 4.62 3 7 C2.01 7 1.02 7 0 7 C0 4.69 0 2.38 0 0 Z " fill="#F2F3F5" transform="translate(65,24)"/>
<path d="M0 0 C0.99 0 1.98 0 3 0 C3 0.66 3 1.32 3 2 C4.65 2.33 6.3 2.66 8 3 C8 3.33 8 3.66 8 4 C5.36 4 2.72 4 0 4 C0 2.68 0 1.36 0 0 Z " fill="#313131" transform="translate(97,31)"/>
<path d="M0 0 C1.65 0 3.3 0 5 0 C5 0.99 5 1.98 5 3 C3.35 3.33 1.7 3.66 0 4 C0 2.68 0 1.36 0 0 Z " fill="#4F4F50" transform="translate(53,13)"/>
</svg>
