<?xml version="1.0" encoding="UTF-8"?>
<svg version="1.1" xmlns="http://www.w3.org/2000/svg" width="124" height="41">
<path d="M0 0 C40.92 0 81.84 0 124 0 C124 13.53 124 27.06 124 41 C83.08 41 42.16 41 0 41 C0 27.47 0 13.94 0 0 Z " fill="#F4F4F6" transform="translate(0,0)"/>
<path d="M0 0 C3.90303711 2.08218178 6.86309486 4.38480584 8.93359375 8.27734375 C9.61172425 13.9684896 9.53922933 19.08404249 6.93359375 24.27734375 C4.43359375 25.90234375 4.43359375 25.90234375 1.93359375 27.27734375 C1.27359375 28.26734375 0.61359375 29.25734375 -0.06640625 30.27734375 C-4.87513722 31.21865831 -9.94626357 31.35174038 -14.37890625 29.10546875 C-17.30959115 26.73649846 -18.82602561 25.01451104 -20.00390625 21.40234375 C-20.02453125 20.70109375 -20.04515625 19.99984375 -20.06640625 19.27734375 C-20.72640625 19.27734375 -21.38640625 19.27734375 -22.06640625 19.27734375 C-22.97572638 9.96523209 -22.97572638 9.96523209 -20.87109375 6.05859375 C-15.34873987 -0.49052945 -8.37798339 -2.92991858 0 0 Z " fill="#E6455B" transform="translate(38.06640625,6.72265625)"/>
<path d="M0 0 C0.99 0 1.98 0 3 0 C3 0.99 3 1.98 3 3 C6.3 3 9.6 3 13 3 C13.33 4.65 13.66 6.3 14 8 C14.66 8 15.32 8 16 8 C16.66 6.35 17.32 4.7 18 3 C19.43655854 2.91868537 20.8744483 2.86066441 22.3125 2.8125 C23.51326172 2.76029297 23.51326172 2.76029297 24.73828125 2.70703125 C27 3 27 3 28.8046875 4.3515625 C30 6 30 6 29.8125 8.5625 C29 11 29 11 27 13 C21.70422535 13.56338028 21.70422535 13.56338028 19.125 11.5 C18.75375 11.005 18.3825 10.51 18 10 C17.4225 10.969375 16.845 11.93875 16.25 12.9375 C14 16 14 16 11.75 16.875 C11.1725 16.91625 10.595 16.9575 10 17 C10 16.34 10 15.68 10 15 C10.99 14.34 11.98 13.68 13 13 C12.67 11.35 12.34 9.7 12 8 C11.69449219 8.81855469 11.38898438 9.63710938 11.07421875 10.48046875 C9 13 9 13 7.06494141 13.41259766 C4.63149977 13.49283238 2.24415774 13.43474111 -0.1875 13.3125 C-1.03248047 13.28994141 -1.87746094 13.26738281 -2.74804688 13.24414062 C-4.83278798 13.18524963 -6.91661804 13.09556798 -9 13 C-9.625 10.625 -9.625 10.625 -10 8 C-9.34 7.34 -8.68 6.68 -8 6 C-8.33 5.01 -8.66 4.02 -9 3 C-3.25 2.875 -3.25 2.875 -1 4 C-0.67 2.68 -0.34 1.36 0 0 Z " fill="#B1B1B1" transform="translate(82,13)"/>
<path d="M0 0 C1.38294718 0.01329757 2.76582404 0.03715018 4.1484375 0.0703125 C4.85484375 0.07933594 5.56125 0.08835937 6.2890625 0.09765625 C8.03399848 0.12123647 9.77876045 0.15710789 11.5234375 0.1953125 C11.5234375 0.8553125 11.5234375 1.5153125 11.5234375 2.1953125 C10.5334375 2.1953125 9.5434375 2.1953125 8.5234375 2.1953125 C8.5234375 4.8353125 8.5234375 7.4753125 8.5234375 10.1953125 C7.2034375 10.1953125 5.8834375 10.1953125 4.5234375 10.1953125 C4.1934375 11.1853125 3.8634375 12.1753125 3.5234375 13.1953125 C1.2134375 13.5253125 -1.0965625 13.8553125 -3.4765625 14.1953125 C-3.8065625 13.2053125 -4.1365625 12.2153125 -4.4765625 11.1953125 C-2.4965625 11.1953125 -0.5165625 11.1953125 1.5234375 11.1953125 C-0.4565625 10.5353125 -2.4365625 9.8753125 -4.4765625 9.1953125 C-5.1015625 5.8203125 -5.1015625 5.8203125 -5.4765625 2.1953125 C-3.4765625 0.1953125 -3.4765625 0.1953125 0 0 Z " fill="#ADACAC" transform="translate(59.4765625,15.8046875)"/>
<path d="M0 0 C0.66 1.32 1.32 2.64 2 4 C-1.67410785 5.17571451 -5.16929183 5.07366746 -9 5 C-8.34 7.31 -7.68 9.62 -7 12 C-5.35 12.33 -3.7 12.66 -2 13 C-2 12.01 -2 11.02 -2 10 C-0.35 10 1.3 10 3 10 C3 11.65 3 13.3 3 15 C-0.34246999 17.36758291 -3.20940236 17.22479738 -7.09375 16.6015625 C-10.30843616 15.58709187 -11.45017237 13.9059268 -13 11 C-13.5625 8 -13.5625 8 -13 5 C-9.18734055 -0.48069796 -6.20006788 -0.52542948 0 0 Z " fill="#F1CDD3" transform="translate(36,13)"/>
<path d="M0 0 C0.33 0 0.66 0 1 0 C1 3.96 1 7.92 1 12 C1.66 12 2.32 12 3 12 C3 10.02 3 8.04 3 6 C4.65 5.67 6.3 5.34 8 5 C8.33 6.65 8.66 8.3 9 10 C4.93272755 12.91832543 2.15084383 13.33790436 -2.8125 13.1875 C-4.55466797 13.14689453 -4.55466797 13.14689453 -6.33203125 13.10546875 C-7.21246094 13.07066406 -8.09289062 13.03585938 -9 13 C-9.625 10.625 -9.625 10.625 -10 8 C-9.34 7.34 -8.68 6.68 -8 6 C-8.33 5.01 -8.66 4.02 -9 3 C-3.25 2.875 -3.25 2.875 -1 4 C-0.67 2.68 -0.34 1.36 0 0 Z " fill="#B6B6B6" transform="translate(82,13)"/>
<path d="M0 0 C5.41139241 -0.36075949 5.41139241 -0.36075949 7.9375 1.1875 C9 3 9 3 8.8125 5.5625 C8 8 8 8 6 10 C3 10.3125 3 10.3125 0 10 C-2 7 -2 7 -1.6875 4.4375 C-1 2 -1 2 0 0 Z " fill="#9B9B9A" transform="translate(103,16)"/>
<path d="M0 0 C0.66 0 1.32 0 2 0 C2 0.99 2 1.98 2 3 C2.763125 2.938125 3.52625 2.87625 4.3125 2.8125 C7 3 7 3 8.8125 4.1875 C10.40199375 6.6135694 10.36487512 8.15397406 10 11 C8 13 8 13 5.375 13.125 C4.59125 13.08375 3.8075 13.0425 3 13 C3.99 12.38125 3.99 12.38125 5 11.75 C5.66 11.1725 6.32 10.595 7 10 C7 8.68 7 7.36 7 6 C5.68 6 4.36 6 3 6 C2.67 7.98 2.34 9.96 2 12 C1.34 12 0.68 12 0 12 C0 8.04 0 4.08 0 0 Z " fill="#989796" transform="translate(83,13)"/>
<path d="M0 0 C2.72869407 0.03287583 5.2966618 0.56397771 8 1 C8 3.64 8 6.28 8 9 C7.34 9 6.68 9 6 9 C6 7.02 6 5.04 6 3 C4.35 3 2.7 3 1 3 C1.27034634 5.43717258 1.27034634 5.43717258 2 8 C2.99 8.66 3.98 9.32 5 10 C2.625 10.1875 2.625 10.1875 0 10 C-2.14915785 6.77626323 -2.38286803 5.73296326 -2 2 C-1.34 1.34 -0.68 0.68 0 0 Z " fill="#939291" transform="translate(56,16)"/>
<path d="M0 0 C1.5625 1.75 1.5625 1.75 3 4 C2.875 6.1875 2.875 6.1875 2 8 C1.01 8.33 0.02 8.66 -1 9 C-1.33 9.66 -1.66 10.32 -2 11 C-2 10.01 -2 9.02 -2 8 C-7.61 8 -13.22 8 -19 8 C-19 7.67 -19 7.34 -19 7 C-10.585 6.505 -10.585 6.505 -2 6 C-1.34 4.02 -0.68 2.04 0 0 Z " fill="#E4E5E6" transform="translate(93,19)"/>
<path d="M0 0 C1.2065625 0.0309375 1.2065625 0.0309375 2.4375 0.0625 C2.81968767 1.71864657 3.15145102 3.38707024 3.4375 5.0625 C2.4375 6.0625 2.4375 6.0625 -0.125 6.125 C-1.3315625 6.0940625 -1.3315625 6.0940625 -2.5625 6.0625 C-2.94468767 4.40635343 -3.27645102 2.73792976 -3.5625 1.0625 C-2.5625 0.0625 -2.5625 0.0625 0 0 Z " fill="#E4E5E6" transform="translate(106.5625,17.9375)"/>
<path d="M0 0 C1.2065625 0.0309375 1.2065625 0.0309375 2.4375 0.0625 C2.81968767 1.71864657 3.15145102 3.38707024 3.4375 5.0625 C2.4375 6.0625 2.4375 6.0625 -0.125 6.125 C-1.3315625 6.0940625 -1.3315625 6.0940625 -2.5625 6.0625 C-2.94468767 4.40635343 -3.27645102 2.73792976 -3.5625 1.0625 C-2.5625 0.0625 -2.5625 0.0625 0 0 Z " fill="#E3E4E6" transform="translate(59.5625,17.9375)"/>
<path d="M0 0 C1.65 0 3.3 0 5 0 C5 1.65 5 3.3 5 5 C1.00439392 7.83022097 -2.42737323 6.76210446 -7 6 C-3.98968256 5.06576355 -3.13349732 4.95550089 0 6 C-0.33 5.01 -0.66 4.02 -1 3 C-0.67 2.01 -0.34 1.02 0 0 Z " fill="#F0BDC5" transform="translate(34,23)"/>
<path d="M0 0 C1.67542976 0.28604898 3.34385343 0.61781233 5 1 C4.67 2.65 4.34 4.3 4 6 C2.35 6 0.7 6 -1 6 C-1.042721 4.33388095 -1.04063832 2.66617115 -1 1 C-0.67 0.67 -0.34 0.34 0 0 Z " fill="#EAEAEC" transform="translate(86,18)"/>
<path d="M0 0 C2.64 0 5.28 0 8 0 C8.66 1.32 9.32 2.64 10 4 C6.61981469 5.04005702 3.5219721 5.08004482 0 5 C0.33 4.34 0.66 3.68 1 3 C2.65 3 4.3 3 6 3 C6 2.34 6 1.68 6 1 C4.02 1 2.04 1 0 1 C0 0.67 0 0.34 0 0 Z " fill="#EEADB7" transform="translate(28,13)"/>
<path d="M0 0 C0.99 0.33 1.98 0.66 3 1 C0.25 6.875 0.25 6.875 -2 8 C-2 7.34 -2 6.68 -2 6 C-2.66 5.67 -3.32 5.34 -4 5 C-3.34 5 -2.68 5 -2 5 C-1.34 3.35 -0.68 1.7 0 0 Z " fill="#B2B2B2" transform="translate(100,16)"/>
<path d="M0 0 C2.31 0.33 4.62 0.66 7 1 C7.33 1.99 7.66 2.98 8 4 C5.69 3.67 3.38 3.34 1 3 C0.67 2.01 0.34 1.02 0 0 Z " fill="#F3E7EB" transform="translate(26,25)"/>
<path d="M0 0 C0.66 0 1.32 0 2 0 C2 1.98 2 3.96 2 6 C-0.31 6 -2.62 6 -5 6 C-4.360625 5.7525 -3.72125 5.505 -3.0625 5.25 C-0.81258459 4.18437567 -0.81258459 4.18437567 -0.25 1.875 C-0.1675 1.25625 -0.085 0.6375 0 0 Z " fill="#858382" transform="translate(79,20)"/>
<path d="M0 0 C2.64 0 5.28 0 8 0 C8 0.66 8 1.32 8 2 C5.69 2.33 3.38 2.66 1 3 C0.67 2.01 0.34 1.02 0 0 Z " fill="#9D9C9C" transform="translate(55,27)"/>
<path d="M0 0 C0.66 0 1.32 0 2 0 C1.8125 2.375 1.8125 2.375 1 5 C-1.5625 6.3125 -1.5625 6.3125 -4 7 C-4 6.34 -4 5.68 -4 5 C-3.01 4.34 -2.02 3.68 -1 3 C-0.67 2.01 -0.34 1.02 0 0 Z " fill="#979595" transform="translate(96,23)"/>
<path d="M0 0 C1.5625 1.75 1.5625 1.75 3 4 C2.6875 6.25 2.6875 6.25 2 8 C1.01 7.67 0.02 7.34 -1 7 C-0.67 6.34 -0.34 5.68 0 5 C0.0396713 3.33380554 0.04384447 1.66608987 0 0 Z " fill="#DFDFE0" transform="translate(93,19)"/>
<path d="M0 0 C0.66 0.33 1.32 0.66 2 1 C-1.465 3.97 -1.465 3.97 -5 7 C-3.92643531 2.70574125 -3.4915227 2.25259529 0 0 Z " fill="#E75469" transform="translate(24,7)"/>
</svg>
