<?xml version="1.0" encoding="UTF-8"?>
<svg version="1.1" xmlns="http://www.w3.org/2000/svg" width="147" height="48">
<path d="M0 0 C48.51 0 97.02 0 147 0 C147 15.84 147 31.68 147 48 C98.49 48 49.98 48 0 48 C0 32.16 0 16.32 0 0 Z " fill="#F3F4F6" transform="translate(0,0)"/>
<path d="M0 0 C1.6957905 5.93526674 2 9.43646084 2 16 C-3.94 16 -9.88 16 -16 16 C-16.33 12.7 -16.66 9.4 -17 6 C-16.34 6 -15.68 6 -15 6 C-14.95875 5.38125 -14.9175 4.7625 -14.875 4.125 C-14 2 -14 2 -11.4375 0.75 C-7.45602828 -0.11868474 -4.06570974 -0.14019689 0 0 Z M-22.4375 3.9375 C-21.303125 3.958125 -20.16875 3.97875 -19 4 C-18.34 5.65 -17.68 7.3 -17 9 C-17.99 9.33 -18.98 9.66 -20 10 C-19.979375 10.804375 -19.95875 11.60875 -19.9375 12.4375 C-20 15 -20 15 -21 16 C-24.5 16.125 -24.5 16.125 -28 16 C-29 15 -29 15 -29.0625 12.4375 C-29.041875 11.633125 -29.02125 10.82875 -29 10 C-29.66 10 -30.32 10 -31 10 C-31 11.98 -31 13.96 -31 16 C-31.99 15.67 -32.98 15.34 -34 15 C-34 12.69 -34 10.38 -34 8 C-32.865625 7.525625 -31.73125 7.05125 -30.5625 6.5625 C-24.66666667 3.97660819 -24.66666667 3.97660819 -22.4375 3.9375 Z " fill="#747889" transform="translate(105,18)"/>
<path d="M0 0 C1.134375 0.020625 2.26875 0.04125 3.4375 0.0625 C4.0975 1.7125 4.7575 3.3625 5.4375 5.0625 C4.4475 5.3925 3.4575 5.7225 2.4375 6.0625 C2.458125 6.866875 2.47875 7.67125 2.5 8.5 C2.4375 11.0625 2.4375 11.0625 1.4375 12.0625 C-2.0625 12.1875 -2.0625 12.1875 -5.5625 12.0625 C-6.5625 11.0625 -6.5625 11.0625 -6.625 8.5 C-6.604375 7.695625 -6.58375 6.89125 -6.5625 6.0625 C-7.2225 6.0625 -7.8825 6.0625 -8.5625 6.0625 C-8.5625 8.0425 -8.5625 10.0225 -8.5625 12.0625 C-9.5525 11.7325 -10.5425 11.4025 -11.5625 11.0625 C-11.5625 8.7525 -11.5625 6.4425 -11.5625 4.0625 C-10.428125 3.588125 -9.29375 3.11375 -8.125 2.625 C-2.22916667 0.03910819 -2.22916667 0.03910819 0 0 Z M7.4375 0.0625 C8.81182457 3.88006824 8.11725039 7.13505329 7.4375 11.0625 C11.0675 11.0625 14.6975 11.0625 18.4375 11.0625 C18.4375 11.3925 18.4375 11.7225 18.4375 12.0625 C14.4775 12.0625 10.5175 12.0625 6.4375 12.0625 C6.1075 8.7625 5.7775 5.4625 5.4375 2.0625 C6.0975 2.0625 6.7575 2.0625 7.4375 2.0625 C7.4375 1.4025 7.4375 0.7425 7.4375 0.0625 Z " fill="#99A7B6" transform="translate(82.5625,21.9375)"/>
<path d="M0 0 C0.99 0 1.98 0 3 0 C3.02688151 1.64574566 3.04634123 3.29161413 3.0625 4.9375 C3.07410156 5.85402344 3.08570312 6.77054688 3.09765625 7.71484375 C3 10 3 10 2 11 C0.33570949 11.09823937 -1.33281931 11.12973631 -3 11.125 C-4.36125 11.12886719 -4.36125 11.12886719 -5.75 11.1328125 C-8 11 -8 11 -9 10 C-9.04063832 8.33382885 -9.042721 6.66611905 -9 5 C-9.66 5 -10.32 5 -11 5 C-11 6.98 -11 8.96 -11 11 C-12.64574566 11.02688151 -14.29161413 11.04634123 -15.9375 11.0625 C-16.85402344 11.07410156 -17.77054688 11.08570313 -18.71484375 11.09765625 C-21 11 -21 11 -22 10 C-22.125 7 -22.125 7 -22 4 C-21 3 -21 3 -18.4375 2.9375 C-17.2309375 2.9684375 -17.2309375 2.9684375 -16 3 C-15.67 4.32 -15.34 5.64 -15 7 C-16.32 7 -17.64 7 -19 7 C-19 7.66 -19 8.32 -19 9 C-17.35 9 -15.7 9 -14 9 C-14.020625 8.195625 -14.04125 7.39125 -14.0625 6.5625 C-14 4 -14 4 -13 3 C-11.00049364 2.95556653 -8.99961564 2.96079185 -7 3 C-5.68 3 -4.36 3 -3 3 C-2.01 3 -1.02 3 0 3 C0 2.01 0 1.02 0 0 Z " fill="#8697A9" transform="translate(58,23)"/>
<path d="M0 0 C-0.66 2.97 -1.32 5.94 -2 9 C-2.99 9 -3.98 9 -5 9 C-5 7.35 -5 5.7 -5 4 C-5.66 4 -6.32 4 -7 4 C-7 5.98 -7 7.96 -7 10 C-7.99 9.67 -8.98 9.34 -10 9 C-10 6.69 -10 4.38 -10 2 C-3.375 -1.125 -3.375 -1.125 0 0 Z " fill="#8E9EAE" transform="translate(81,24)"/>
<path d="M0 0 C1.2065625 0.0309375 1.2065625 0.0309375 2.4375 0.0625 C2.7675 1.3825 3.0975 2.7025 3.4375 4.0625 C2.1175 4.0625 0.7975 4.0625 -0.5625 4.0625 C-0.5625 4.7225 -0.5625 5.3825 -0.5625 6.0625 C1.0875 6.0625 2.7375 6.0625 4.4375 6.0625 C4.4375 4.4125 4.4375 2.7625 4.4375 1.0625 C4.7675 1.0625 5.0975 1.0625 5.4375 1.0625 C5.4375 3.0425 5.4375 5.0225 5.4375 7.0625 C6.0975 7.3925 6.7575 7.7225 7.4375 8.0625 C5.79175434 8.08938151 4.14588587 8.10884123 2.5 8.125 C1.58347656 8.13660156 0.66695312 8.14820313 -0.27734375 8.16015625 C-2.5625 8.0625 -2.5625 8.0625 -3.5625 7.0625 C-3.6875 4.0625 -3.6875 4.0625 -3.5625 1.0625 C-2.5625 0.0625 -2.5625 0.0625 0 0 Z " fill="#8294A6" transform="translate(39.5625,25.9375)"/>
<path d="M0 0 C1.99954746 -0.04254356 4.00041636 -0.04080783 6 0 C7 1 7 1 7.1875 3.4375 C7 6 7 6 5 8 C2.375 7.625 2.375 7.625 0 7 C-1.125 2.25 -1.125 2.25 0 0 Z " fill="#667B92" transform="translate(63,26)"/>
<path d="M0 0 C2.5625 0.1875 2.5625 0.1875 4.5625 2.1875 C4.1875 4.8125 4.1875 4.8125 3.5625 7.1875 C1.1875 7.8125 1.1875 7.8125 -1.4375 8.1875 C-3.4375 6.1875 -3.4375 6.1875 -3.625 3.625 C-3.37291261 0.34786389 -3.27713611 0.25208739 0 0 Z " fill="#96A5B5" transform="translate(16.4375,25.8125)"/>
<path d="M0 0 C1.32 0 2.64 0 4 0 C4 2.64 4 5.28 4 8 C0.04 8 -3.92 8 -8 8 C-8 7.67 -8 7.34 -8 7 C-7.05125 6.773125 -6.1025 6.54625 -5.125 6.3125 C-1.80676612 5.30916286 -1.80676612 5.30916286 -0.625 2.375 C-0.41875 1.59125 -0.2125 0.8075 0 0 Z " fill="#2D4B69" transform="translate(102,21)"/>
<path d="M0 0 C0.99 0 1.98 0 3 0 C3.02688151 1.64574566 3.04634123 3.29161413 3.0625 4.9375 C3.07410156 5.85402344 3.08570313 6.77054688 3.09765625 7.71484375 C3 10 3 10 2 11 C-0.5 11.125 -0.5 11.125 -3 11 C-4 10 -4 10 -4.0625 6.9375 C-4.041875 5.968125 -4.02125 4.99875 -4 4 C-3.34 4 -2.68 4 -2 4 C-2 5.65 -2 7.3 -2 9 C-1.01 9 -0.02 9 1 9 C0.67 6.03 0.34 3.06 0 0 Z " fill="#62788F" transform="translate(31,23)"/>
<path d="M0 0 C0.042721 1.66611905 0.04063832 3.33382885 0 5 C-1 6 -1 6 -4.5625 6.0625 C-5.696875 6.041875 -6.83125 6.02125 -8 6 C-7.67 4.35 -7.34 2.7 -7 1 C-4.50935112 0.31292445 -2.62113708 0 0 0 Z " fill="#718499" transform="translate(100,22)"/>
<path d="M0 0 C5.28 0 10.56 0 16 0 C16.33 0.99 16.66 1.98 17 3 C11.39 2.67 5.78 2.34 0 2 C0 1.34 0 0.68 0 0 Z " fill="#AB4C3D" transform="translate(90,31)"/>
<path d="M0 0 C1.37432457 3.81756824 0.67975039 7.07255329 0 11 C3.63 11 7.26 11 11 11 C11 11.33 11 11.66 11 12 C7.04 12 3.08 12 -1 12 C-1.33 8.7 -1.66 5.4 -2 2 C-1.34 2 -0.68 2 0 2 C0 1.34 0 0.68 0 0 Z M-4 1 C-3.34 2.32 -2.68 3.64 -2 5 C-2.99 5.33 -3.98 5.66 -5 6 C-4.67 4.35 -4.34 2.7 -4 1 Z " fill="#CFC0C2" transform="translate(90,22)"/>
<path d="M0 0 C0.99 0 1.98 0 3 0 C3 3.63 3 7.26 3 11 C2.01 11 1.02 11 0 11 C0 7.37 0 3.74 0 0 Z " fill="#71859A" transform="translate(22,23)"/>
<path d="M0 0 C1.98 0 3.96 0 6 0 C6 2.31 6 4.62 6 7 C5.34 7 4.68 7 4 7 C4 5.35 4 3.7 4 2 C3.34 2 2.68 2 2 2 C2 3.65 2 5.3 2 7 C1.34 7 0.68 7 0 7 C0 4.69 0 2.38 0 0 Z " fill="#61778E" transform="translate(45,26)"/>
<path d="M0 0 C-0.33 0.99 -0.66 1.98 -1 3 C-7.435 3.495 -7.435 3.495 -14 4 C-14 3.34 -14 2.68 -14 2 C-9.07262981 0.02905192 -5.21979128 -0.1799928 0 0 Z " fill="#9FA4AC" transform="translate(105,18)"/>
<path d="M0 0 C0.99 0.33 1.98 0.66 3 1 C2.34 3.97 1.68 6.94 1 10 C0.34 10 -0.32 10 -1 10 C-1.02689216 8.52093108 -1.04634621 7.04172517 -1.0625 5.5625 C-1.07410156 4.73878906 -1.08570312 3.91507813 -1.09765625 3.06640625 C-1 1 -1 1 0 0 Z " fill="#5C738A" transform="translate(78,23)"/>
<path d="M0 0 C0.99 0.33 1.98 0.66 3 1 C2.67 2.32 2.34 3.64 2 5 C2.99 5 3.98 5 5 5 C5.33 3.68 5.66 2.36 6 1 C6.33 2.65 6.66 4.3 7 6 C4.625 6.625 4.625 6.625 2 7 C0 5 0 5 -0.125 2.375 C-0.08375 1.59125 -0.0425 0.8075 0 0 Z " fill="#667B92" transform="translate(13,27)"/>
<path d="M0 0 C0.99 0 1.98 0 3 0 C3 3.3 3 6.6 3 10 C2.01 9.67 1.02 9.34 0 9 C0 6.03 0 3.06 0 0 Z " fill="#667B91" transform="translate(58,23)"/>
<path d="M0 0 C1.98 0 3.96 0 6 0 C5.67 1.98 5.34 3.96 5 6 C4.01 6 3.02 6 2 6 C2 4.35 2 2.7 2 1 C1.34 0.67 0.68 0.34 0 0 Z " fill="#ACB7C4" transform="translate(63,26)"/>
<path d="M0 0 C0.99 0.33 1.98 0.66 3 1 C3 2.65 3 4.3 3 6 C1.68 6.33 0.36 6.66 -1 7 C-0.67 4.69 -0.34 2.38 0 0 Z " fill="#A3B0BD" transform="translate(51,27)"/>
<path d="M0 0 C1.32 0.33 2.64 0.66 4 1 C4 2.65 4 4.3 4 6 C3.01 6 2.02 6 1 6 C0.67 4.02 0.34 2.04 0 0 Z " fill="#ABB7C3" transform="translate(28,26)"/>
</svg>
