<?xml version="1.0" encoding="UTF-8"?>
<svg version="1.1" xmlns="http://www.w3.org/2000/svg" width="166" height="64">
<path d="M0 0 C54.78 0 109.56 0 166 0 C166 21.12 166 42.24 166 64 C111.22 64 56.44 64 0 64 C0 42.88 0 21.76 0 0 Z " fill="#F4F5F6" transform="translate(0,0)"/>
<path d="M0 0 C2.8125 -0.25 2.8125 -0.25 6 0 C8.467339 2.2206051 8.96152446 3.43569203 9.1875 6.75 C9.0946875 7.86375 9.0946875 7.86375 9 9 C10.65 9 12.3 9 14 9 C13.48468023 13.98142448 12.7450523 18.27809378 11 23 C10.62875 24.11375 10.2575 25.2275 9.875 26.375 C9.58625 27.24125 9.2975 28.1075 9 29 C7.35 28.67 5.7 28.34 4 28 C4 26.68 4 25.36 4 24 C2.68 24 1.36 24 0 24 C-0.33 25.65 -0.66 27.3 -1 29 C-2.65 28.67 -4.3 28.34 -6 28 C-6 26.68 -6 25.36 -6 24 C-6.66 23.34 -7.32 22.68 -8 22 C-8.58899837 17.67697422 -8.74357326 13.3592546 -9 9 C-3.72 9 1.56 9 7 9 C6.34 7.02 5.68 5.04 5 3 C3.35 2.67 1.7 2.34 0 2 C0 1.34 0 0.68 0 0 Z " fill="#65CF08" transform="translate(36,13)"/>
<path d="M0 0 C1.12591553 0.00523682 2.25183105 0.01047363 3.41186523 0.01586914 C4.62680664 0.0190918 5.84174805 0.02231445 7.09350586 0.02563477 C8.37290039 0.03401367 9.65229492 0.04239258 10.97045898 0.05102539 C12.2537207 0.05553711 13.53698242 0.06004883 14.85913086 0.06469727 C18.04211921 0.07652994 21.22501661 0.09301471 24.40795898 0.11352539 C24.22233398 0.75290039 24.03670898 1.39227539 23.84545898 2.05102539 C23.70108398 2.73165039 23.55670898 3.41227539 23.40795898 4.11352539 C23.73795898 4.44352539 24.06795898 4.77352539 24.40795898 5.11352539 C24.53295898 7.61352539 24.53295898 7.61352539 24.40795898 10.11352539 C22.30664513 12.21483924 17.86649576 11.2986728 14.97045898 11.30102539 C14.1809082 11.31327148 13.39135742 11.32551758 12.57788086 11.33813477 C10.51988464 11.34339818 8.46233889 11.23558825 6.40795898 11.11352539 C4.40795898 9.11352539 4.40795898 9.11352539 4.28295898 6.48852539 C4.32420898 5.70477539 4.36545898 4.92102539 4.40795898 4.11352539 C3.41795898 4.11352539 2.42795898 4.11352539 1.40795898 4.11352539 C1.40795898 6.09352539 1.40795898 8.07352539 1.40795898 10.11352539 C-0.24204102 10.44352539 -1.89204102 10.77352539 -3.59204102 11.11352539 C-3.61892252 9.46777973 -3.63838225 7.82191126 -3.65454102 6.17602539 C-3.66614258 5.25950195 -3.67774414 4.34297852 -3.68969727 3.39868164 C-3.54976892 0.12435827 -3.29250448 0.14420407 0 0 Z " fill="#6F7071" transform="translate(69.592041015625,24.886474609375)"/>
<path d="M0 0 C1.65 0 3.3 0 5 0 C5 4.95 5 9.9 5 15 C1.37 15 -2.26 15 -6 15 C-6.33 11.37 -6.66 7.74 -7 4 C-3 3 -3 3 0 4 C0 2.68 0 1.36 0 0 Z " fill="#78797A" transform="translate(104,21)"/>
<path d="M0 0 C-1.32 0.33 -2.64 0.66 -4 1 C-4 1.66 -4 2.32 -4 3 C-3.21625 2.95875 -2.4325 2.9175 -1.625 2.875 C1 3 1 3 3 5 C3 6.65 3 8.3 3 10 C-2.28 10 -7.56 10 -13 10 C-12.649375 11.4025 -12.29875 12.805 -11.9375 14.25 C-11.10736898 17.57052408 -10.92689142 19.72814447 -12 23 C-13.33583899 18.15758367 -14.25328119 14.06562383 -14 9 C-12.68 9 -11.36 9 -10 9 C-9.9175 8.071875 -9.835 7.14375 -9.75 6.1875 C-9 3 -9 3 -7.25 1.125 C-4.63695229 -0.18152386 -2.88466476 -0.24038873 0 0 Z " fill="#95DB57" transform="translate(40,12)"/>
<path d="M0 0 C0.78375 0.165 1.5675 0.33 2.375 0.5 C5.66834196 1.12730323 7.79559043 0.85450922 11 0 C9.125 10.125 9.125 10.125 6 14 C5.01 14 4.02 14 3 14 C1.79534844 9.34201396 0.71452588 4.76350585 0 0 Z " fill="#151515" transform="translate(110,25)"/>
<path d="M0 0 C6.27 0 12.54 0 19 0 C18.34 2.31 17.68 4.62 17 7 C15.35 6.67 13.7 6.34 12 6 C12 4.68 12 3.36 12 2 C10.68 2 9.36 2 8 2 C7.67 3.65 7.34 5.3 7 7 C5.35 6.67 3.7 6.34 2 6 C2 4.68 2 3.36 2 2 C1.34 1.34 0.68 0.68 0 0 Z " fill="#97DC5B" transform="translate(28,35)"/>
<path d="M0 0 C3.63 0 7.26 0 11 0 C11 0.99 11 1.98 11 3 C9.68 3 8.36 3 7 3 C7 6.3 7 9.6 7 13 C5.68 13 4.36 13 3 13 C3 9.7 3 6.4 3 3 C2.01 3 1.02 3 0 3 C0 2.01 0 1.02 0 0 Z " fill="#131314" transform="translate(54,22)"/>
<path d="M0 0 C1.98 0 3.96 0 6 0 C5.814375 0.639375 5.62875 1.27875 5.4375 1.9375 C5.293125 2.618125 5.14875 3.29875 5 4 C5.33 4.33 5.66 4.66 6 5 C6.125 7.5 6.125 7.5 6 10 C5 11 5 11 1.4375 11.0625 C0.303125 11.041875 -0.83125 11.02125 -2 11 C-2 10.01 -2 9.02 -2 8 C-0.68 8 0.64 8 2 8 C1.484375 7.608125 0.96875 7.21625 0.4375 6.8125 C-0.036875 6.214375 -0.51125 5.61625 -1 5 C-0.6875 2.3125 -0.6875 2.3125 0 0 Z " fill="#272727" transform="translate(88,25)"/>
<path d="M0 0 C1.63001953 0.01353516 1.63001953 0.01353516 3.29296875 0.02734375 C4.12441406 0.03894531 4.95585938 0.05054687 5.8125 0.0625 C5.8125 0.3925 5.8125 0.7225 5.8125 1.0625 C2.1825 1.0625 -1.4475 1.0625 -5.1875 1.0625 C-5.1875 2.0525 -5.1875 3.0425 -5.1875 4.0625 C-4.1975 4.0625 -3.2075 4.0625 -2.1875 4.0625 C-2.1875 7.3625 -2.1875 10.6625 -2.1875 14.0625 C-2.8475 14.0625 -3.5075 14.0625 -4.1875 14.0625 C-4.1875 11.0925 -4.1875 8.1225 -4.1875 5.0625 C-5.1775 5.3925 -6.1675 5.7225 -7.1875 6.0625 C-8.90317661 9.56544871 -8.90317661 9.56544871 -10.1875 13.0625 C-11.14587449 10.01623824 -11.20408162 7.97036364 -10.4375 4.875 C-10.27765625 4.18019531 -10.1178125 3.48539063 -9.953125 2.76953125 C-9.70046875 2.20621094 -9.4478125 1.64289062 -9.1875 1.0625 C-5.90230525 -0.03256492 -3.45086585 -0.03710608 0 0 Z " fill="#B3BEAC" transform="translate(59.1875,20.9375)"/>
<path d="M0 0 C0.99 0 1.98 0 3 0 C3 1.98 3 3.96 3 6 C3.99 6 4.98 6 6 6 C6 4.02 6 2.04 6 0 C6.66 0 7.32 0 8 0 C8 2.97 8 5.94 8 9 C5.36 9 2.72 9 0 9 C0 6.03 0 3.06 0 0 Z " fill="#0C0C0D" transform="translate(75,26)"/>
<path d="M0 0 C3 0.125 3 0.125 4 1.125 C4.04063832 2.79117115 4.042721 4.45888095 4 6.125 C1.36 6.125 -1.28 6.125 -4 6.125 C-4.042721 4.45888095 -4.04063832 2.79117115 -4 1.125 C-3 0.125 -3 0.125 0 0 Z " fill="#EBF3E8" transform="translate(38,14.875)"/>
<path d="M0 0 C1.9078584 3.1749094 2.1609041 5.10585211 1.625 8.75 C1.45871094 9.94882812 1.45871094 9.94882812 1.2890625 11.171875 C1.14597656 12.07679687 1.14597656 12.07679687 1 13 C0.67 13 0.34 13 0 13 C0 10.03 0 7.06 0 4 C-0.66 4 -1.32 4 -2 4 C-2 7.3 -2 10.6 -2 14 C-3.98 14 -5.96 14 -8 14 C-6.68 13.67 -5.36 13.34 -4 13 C-4 9.7 -4 6.4 -4 3 C-2.68 3 -1.36 3 0 3 C0 2.01 0 1.02 0 0 Z " fill="#AFB0B1" transform="translate(65,22)"/>
<path d="M0 0 C0.78375 0.165 1.5675 0.33 2.375 0.5 C5.66834196 1.12730323 7.79559043 0.85450922 11 0 C10.71872579 1.48117801 10.42466268 2.95993249 10.125 4.4375 C9.88136719 5.67306641 9.88136719 5.67306641 9.6328125 6.93359375 C9.42398438 7.61550781 9.21515625 8.29742187 9 9 C8.01 9.495 8.01 9.495 7 10 C7.33 7.69 7.66 5.38 8 3 C7.67 3.66 7.34 4.32 7 5 C6.01 5 5.02 5 4 5 C4 4.01 4 3.02 4 2 C3.34 2 2.68 2 2 2 C1.67 3.32 1.34 4.64 1 6 C0.67 4.02 0.34 2.04 0 0 Z " fill="#494A4A" transform="translate(110,25)"/>
<path d="M0 0 C1.98 0.495 1.98 0.495 4 1 C4 4.3 4 7.6 4 11 C2.68 11 1.36 11 0 11 C-0.19406478 9.35492782 -0.38007935 7.70890406 -0.5625 6.0625 C-0.66691406 5.14597656 -0.77132812 4.22945312 -0.87890625 3.28515625 C-0.91886719 2.53105469 -0.95882812 1.77695312 -1 1 C-0.67 0.67 -0.34 0.34 0 0 Z " fill="#0E0E0E" transform="translate(98,24)"/>
<path d="M0 0 C0.99 0 1.98 0 3 0 C3 4.29 3 8.58 3 13 C2.01 13 1.02 13 0 13 C0 8.71 0 4.42 0 0 Z " fill="#0D0D0D" transform="translate(105,22)"/>
<path d="M0 0 C1.98 0 3.96 0 6 0 C5.67 2.64 5.34 5.28 5 8 C3.68 8 2.36 8 1 8 C0.67 5.36 0.34 2.72 0 0 Z " fill="#B9E594" transform="translate(35,24)"/>
<path d="M0 0 C0.99 0 1.98 0 3 0 C4.1577506 3.47325181 4.06866652 6.36067448 4 10 C2.68 10 1.36 10 0 10 C-0.66 7.69 -1.32 5.38 -2 3 C-1.34 3 -0.68 3 0 3 C0 2.01 0 1.02 0 0 Z " fill="#929394" transform="translate(94,25)"/>
<path d="M0 0 C1.98 0 3.96 0 6 0 C6 0.66 6 1.32 6 2 C5.01 2.495 5.01 2.495 4 3 C3.34227572 6.02934491 3.34227572 6.02934491 3 9 C2.01 9 1.02 9 0 9 C0 6.03 0 3.06 0 0 Z " fill="#111111" transform="translate(66,26)"/>
<path d="M0 0 C0.99 0 1.98 0 3 0 C3 2.31 3 4.62 3 7 C4.65 7 6.3 7 8 7 C8 7.33 8 7.66 8 8 C4.37 8 0.74 8 -3 8 C-1.68 7.67 -0.36 7.34 1 7 C0.67 4.69 0.34 2.38 0 0 Z " fill="#A6A7A8" transform="translate(101,28)"/>
<path d="M0 0 C1.98 0 3.96 0 6 0 C5.67 1.65 5.34 3.3 5 5 C3.35 4.67 1.7 4.34 0 4 C0 2.68 0 1.36 0 0 Z " fill="#82D637" transform="translate(40,37)"/>
<path d="M0 0 C0.99 0.33 1.98 0.66 3 1 C2.67 2.32 2.34 3.64 2 5 C2.99 5.33 3.98 5.66 5 6 C5 6.66 5 7.32 5 8 C3.68 8 2.36 8 1 8 C1 8.66 1 9.32 1 10 C0.34 9.67 -0.32 9.34 -1 9 C-0.67 6.03 -0.34 3.06 0 0 Z " fill="#AFB0B1" transform="translate(85,25)"/>
<path d="M0 0 C2.8125 -0.25 2.8125 -0.25 6 0 C8.467339 2.2206051 8.96152446 3.43569203 9.1875 6.75 C9.125625 7.4925 9.06375 8.235 9 9 C8.34 9 7.68 9 7 9 C6.34 7.02 5.68 5.04 5 3 C3.35 2.67 1.7 2.34 0 2 C0 1.34 0 0.68 0 0 Z " fill="#74D321" transform="translate(36,13)"/>
<path d="M0 0 C0.99 0 1.98 0 3 0 C2.71872579 1.48117801 2.42466268 2.95993249 2.125 4.4375 C1.96257812 5.26121094 1.80015625 6.08492187 1.6328125 6.93359375 C1.31957031 7.95646484 1.31957031 7.95646484 1 9 C0.01 9.495 0.01 9.495 -1 10 C-0.835 8.906875 -0.67 7.81375 -0.5 6.6875 C0.06718184 3.12474127 0.06718184 3.12474127 0 0 Z " fill="#5B5C5C" transform="translate(118,25)"/>
</svg>
