<?xml version="1.0" encoding="UTF-8"?>
<svg version="1.1" xmlns="http://www.w3.org/2000/svg" width="659" height="68">
<path d="M0 0 C217.47 0 434.94 0 659 0 C659 22.44 659 44.88 659 68 C441.53 68 224.06 68 0 68 C0 45.56 0 23.12 0 0 Z " fill="#38517E" transform="translate(0,0)"/>
<path d="M0 0 C2.58340384 -0.02703562 5.16652308 -0.04685611 7.75 -0.0625 C8.47960937 -0.07087891 9.20921875 -0.07925781 9.9609375 -0.08789062 C15.57748591 -0.11342039 15.57748591 -0.11342039 18.11816406 0.56860352 C20.07545099 1.22717565 20.07545099 1.22717565 22 0 C25.5 -0.1875 25.5 -0.1875 29 0 C31 2 31 2 31.1953125 4.3828125 C31.17210937 5.28773437 31.14890625 6.19265625 31.125 7.125 C31.10695313 8.03507812 31.08890625 8.94515625 31.0703125 9.8828125 C31.04710937 10.58148438 31.02390625 11.28015625 31 12 C25.66666667 12 20.33333333 12 15 12 C14.67 9.03 14.34 6.06 14 3 C13.34 3 12.68 3 12 3 C11.67 5.97 11.34 8.94 11 12 C10.01 12 9.02 12 8 12 C7.67 9.03 7.34 6.06 7 3 C6.01 3 5.02 3 4 3 C3.67 5.97 3.34 8.94 3 12 C2.01 12 1.02 12 0 12 C0 8.04 0 4.08 0 0 Z " fill="#485D87" transform="translate(402,19)"/>
<path d="M0 0 C0.99 0.66 1.98 1.32 3 2 C3.99 1.34 4.98 0.68 6 0 C8.33199388 -0.07905064 10.66832622 -0.08798769 13 0 C13 0.99 13 1.98 13 3 C10.03 2.505 10.03 2.505 7 2 C7 2.66 7 3.32 7 4 C8.98 4.66 10.96 5.32 13 6 C13 7.65 13 9.3 13 11 C9.72978041 12.63510979 6.15266249 12.22628299 2.5625 12.25 C1.39750977 12.2809375 1.39750977 12.2809375 0.20898438 12.3125 C-5.54485264 12.35214746 -5.54485264 12.35214746 -7.72290039 10.66699219 C-9.69081849 8.09827783 -9.39140497 6.13123974 -9 3 C-6.78229215 -0.69617975 -4.0271794 -0.41949785 0 0 Z " fill="#455C86" transform="translate(316,19)"/>
<path d="M0 0 C0.66 0 1.32 0 2 0 C2 0.99 2 1.98 2 3 C3.65614657 3.38218767 5.32457024 3.71395102 7 4 C7.33 3.67 7.66 3.34 8 3 C10.33297433 2.95907063 12.66705225 2.95758277 15 3 C15 3.66 15 4.32 15 5 C13.35 5 11.7 5 10 5 C10 5.66 10 6.32 10 7 C10.804375 7.2475 11.60875 7.495 12.4375 7.75 C15 9 15 9 15.9375 11 C15.958125 11.66 15.97875 12.32 16 13 C14 15 14 15 10.7421875 15.1953125 C9.46601562 15.17210937 8.18984375 15.14890625 6.875 15.125 C4.95300781 15.09792969 4.95300781 15.09792969 2.9921875 15.0703125 C1.51105469 15.03550781 1.51105469 15.03550781 0 15 C-2.27571116 5.98468271 -2.27571116 5.98468271 -1.125 1.875 C-0.75375 1.25625 -0.3825 0.6375 0 0 Z " fill="#465786" transform="translate(74,45)"/>
<path d="M0 0 C1.32 0.33 2.64 0.66 4 1 C4.66 3.31 5.32 5.62 6 8 C6.99 5.36 7.98 2.72 9 0 C9.99 0 10.98 0 12 0 C13.49821059 3.37097383 14 5.20442119 14 9 C14.66 9 15.32 9 16 9 C16.33 6.03 16.66 3.06 17 0 C18.32 0 19.64 0 21 0 C19.68 5.28 18.36 10.56 17 16 C15.68 16 14.36 16 13 16 C12.01 13.03 11.02 10.06 10 7 C9.34 9.97 8.68 12.94 8 16 C6.35 15.67 4.7 15.34 3 15 C2.49564306 13.0636296 1.99666126 11.12585854 1.5 9.1875 C1.2215625 8.10855469 0.943125 7.02960937 0.65625 5.91796875 C0 3 0 3 0 0 Z " fill="#B4BEC9" transform="translate(30,15)"/>
<path d="M0 0 C6.8359375 -0.1953125 6.8359375 -0.1953125 9 0 C9.66 0.66 10.32 1.32 11 2 C10.71325582 4.00720923 10.38133299 6.0085944 10 8 C10.33 8.33 10.66 8.66 11 9 C11.1875 11.4375 11.1875 11.4375 11 14 C9 16 9 16 6.8359375 16.1953125 C4.55729167 16.13020833 2.27864583 16.06510417 0 16 C0 10.72 0 5.44 0 0 Z " fill="#B7C0CE" transform="translate(32,44)"/>
<path d="M0 0 C1.21816406 0.03480469 1.21816406 0.03480469 2.4609375 0.0703125 C3.68683594 0.09738281 3.68683594 0.09738281 4.9375 0.125 C5.87722656 0.15980469 5.87722656 0.15980469 6.8359375 0.1953125 C4.9609375 7.0703125 4.9609375 7.0703125 3.8359375 8.1953125 C2.16976635 8.23595082 0.50205655 8.2380335 -1.1640625 8.1953125 C-1.1640625 8.8553125 -1.1640625 9.5153125 -1.1640625 10.1953125 C1.1459375 10.1953125 3.4559375 10.1953125 5.8359375 10.1953125 C6.1659375 11.8453125 6.4959375 13.4953125 6.8359375 15.1953125 C3.16728509 17.64108077 1.16393407 17.43138504 -3.1640625 17.1953125 C-3.8240625 16.8653125 -4.4840625 16.5353125 -5.1640625 16.1953125 C-5.1640625 14.8753125 -5.1640625 13.5553125 -5.1640625 12.1953125 C-4.5040625 12.1953125 -3.8440625 12.1953125 -3.1640625 12.1953125 C-3.08628246 9.473011 -3.16953914 7.17176296 -3.7890625 4.5078125 C-3.9128125 3.7446875 -4.0365625 2.9815625 -4.1640625 2.1953125 C-2.1640625 0.1953125 -2.1640625 0.1953125 0 0 Z " fill="#A0AEC2" transform="translate(472.1640625,18.8046875)"/>
<path d="M0 0 C1.21816406 0.03480469 1.21816406 0.03480469 2.4609375 0.0703125 C3.68683594 0.09738281 3.68683594 0.09738281 4.9375 0.125 C5.87722656 0.15980469 5.87722656 0.15980469 6.8359375 0.1953125 C6.8359375 0.8553125 6.8359375 1.5153125 6.8359375 2.1953125 C6.1759375 2.1953125 5.5159375 2.1953125 4.8359375 2.1953125 C4.8565625 2.9996875 4.8771875 3.8040625 4.8984375 4.6328125 C4.8359375 7.1953125 4.8359375 7.1953125 3.8359375 8.1953125 C2.16976635 8.23595082 0.50205655 8.2380335 -1.1640625 8.1953125 C-1.1640625 8.8553125 -1.1640625 9.5153125 -1.1640625 10.1953125 C0.2590625 10.164375 0.2590625 10.164375 1.7109375 10.1328125 C4.8359375 10.1953125 4.8359375 10.1953125 6.8359375 11.1953125 C6.4609375 13.6328125 6.4609375 13.6328125 5.8359375 16.1953125 C2.62142481 17.80256885 -0.60018786 17.25279435 -4.1640625 17.1953125 C-4.4940625 15.5453125 -4.8240625 13.8953125 -5.1640625 12.1953125 C-4.5040625 12.1953125 -3.8440625 12.1953125 -3.1640625 12.1953125 C-3.08628246 9.473011 -3.16953914 7.17176296 -3.7890625 4.5078125 C-3.9128125 3.7446875 -4.0365625 2.9815625 -4.1640625 2.1953125 C-2.1640625 0.1953125 -2.1640625 0.1953125 0 0 Z " fill="#9FABBF" transform="translate(341.1640625,18.8046875)"/>
<path d="M0 0 C6.8359375 -0.1953125 6.8359375 -0.1953125 9 0 C11 2 11 2 11.265625 3.875 C11.26046875 4.57625 11.2553125 5.2775 11.25 6 C11.25515625 6.70125 11.2603125 7.4025 11.265625 8.125 C11 10 11 10 9 12 C6.375 12.125 6.375 12.125 4 12 C3.67 13.65 3.34 15.3 3 17 C2.01 17 1.02 17 0 17 C0 11.39 0 5.78 0 0 Z " fill="#A7BDCE" transform="translate(123,48)"/>
<path d="M0 0 C0.99 0 1.98 0 3 0 C3 5.61 3 11.22 3 17 C-3.8359375 17.1953125 -3.8359375 17.1953125 -6 17 C-8 15 -8 15 -8.265625 13.125 C-8.26046875 12.42375 -8.2553125 11.7225 -8.25 11 C-8.25515625 10.29875 -8.2603125 9.5975 -8.265625 8.875 C-8 7 -8 7 -6 5 C-3.375 4.875 -3.375 4.875 -1 5 C-0.67 3.35 -0.34 1.7 0 0 Z " fill="#B2B6C3" transform="translate(302,14)"/>
<path d="M0 0 C0.99 0 1.98 0 3 0 C3.33 1.65 3.66 3.3 4 5 C4.78375 4.95875 5.5675 4.9175 6.375 4.875 C9 5 9 5 11 7 C11.265625 8.875 11.265625 8.875 11.25 11 C11.25515625 11.70125 11.2603125 12.4025 11.265625 13.125 C11 15 11 15 9 17 C5.98173347 17.27240673 3.03629378 17.08675125 0 17 C0 11.39 0 5.78 0 0 Z " fill="#9DC0D4" transform="translate(517,14)"/>
<path d="M0 0 C0.99 0 1.98 0 3 0 C3 5.61 3 11.22 3 17 C-5 17 -5 17 -7 15.875 C-8.47901666 13.10184376 -8.38601984 11.08815875 -8 8 C-6.8125 6.125 -6.8125 6.125 -5 5 C-2.3125 4.8125 -2.3125 4.8125 0 5 C0 3.35 0 1.7 0 0 Z " fill="#98B4CD" transform="translate(282,14)"/>
<path d="M0 0 C2.62506802 -0.02690844 5.24986173 -0.04679404 7.875 -0.0625 C8.62136719 -0.07087891 9.36773437 -0.07925781 10.13671875 -0.08789062 C15.7734375 -0.11328125 15.7734375 -0.11328125 18 1 C18 4.63 18 8.26 18 12 C17.01 12 16.02 12 15 12 C14.67 9.03 14.34 6.06 14 3 C13.34 3 12.68 3 12 3 C11.67 5.97 11.34 8.94 11 12 C10.01 12 9.02 12 8 12 C7.67 9.03 7.34 6.06 7 3 C6.01 3 5.02 3 4 3 C3.67 5.97 3.34 8.94 3 12 C2.01 12 1.02 12 0 12 C0 8.04 0 4.08 0 0 Z " fill="#B1BCCA" transform="translate(402,19)"/>
<path d="M0 0 C2.64590014 -0.02684679 5.29153096 -0.04676357 7.9375 -0.0625 C8.69224609 -0.07087891 9.44699219 -0.07925781 10.22460938 -0.08789062 C12.14994313 -0.09652441 14.07535581 -0.05224333 16 0 C17 1 17 1 17.09765625 3.50390625 C17.08605469 4.51324219 17.07445312 5.52257812 17.0625 6.5625 C17.05347656 7.57441406 17.04445312 8.58632813 17.03515625 9.62890625 C17.02355469 10.41136719 17.01195312 11.19382812 17 12 C16.01 12 15.02 12 14 12 C14 8.7 14 5.4 14 2 C13.01 2.33 12.02 2.66 11 3 C10.67 5.97 10.34 8.94 10 12 C9.01 12 8.02 12 7 12 C6.67 9.03 6.34 6.06 6 3 C5.34 3 4.68 3 4 3 C3.67 5.97 3.34 8.94 3 12 C2.01 12 1.02 12 0 12 C0 8.04 0 4.08 0 0 Z " fill="#B3BECD" transform="translate(146,19)"/>
<path d="M0 0 C3.5 0.25 3.5 0.25 5.5 2.25 C5.765625 4.125 5.765625 4.125 5.75 6.25 C5.75515625 6.95125 5.7603125 7.6525 5.765625 8.375 C5.5 10.25 5.5 10.25 3.5 12.25 C0.42891945 12.5767107 -1.65050101 12.73138276 -4.375 11.1875 C-6.11973477 8.18267901 -5.80835443 5.64189869 -5.5 2.25 C-3.5 0.25 -3.5 0.25 0 0 Z " fill="#ADBCCA" transform="translate(64.5,47.75)"/>
<path d="M0 0 C3.0625 0.25 3.0625 0.25 6.0625 2.25 C6.42578125 4.125 6.42578125 4.125 6.375 6.25 C6.37113281 6.95125 6.36726562 7.6525 6.36328125 8.375 C6.0625 10.25 6.0625 10.25 4.0625 12.25 C0.5625 12.5625 0.5625 12.5625 -2.9375 12.25 C-5.38647847 8.57653229 -5.25287716 6.58643601 -4.9375 2.25 C-2.9375 0.25 -2.9375 0.25 0 0 Z " fill="#ACBCCC" transform="translate(176.9375,18.75)"/>
<path d="M0 0 C0.99 0 1.98 0 3 0 C3.33 1.65 3.66 3.3 4 5 C4.66 3.35 5.32 1.7 6 0 C7.32 0 8.64 0 10 0 C10.66 1.32 11.32 2.64 12 4 C12.66 2.68 13.32 1.36 14 0 C14.66 0 15.32 0 16 0 C15 8.57142857 15 8.57142857 14 12 C12.68 12 11.36 12 10 12 C9.67 9.69 9.34 7.38 9 5 C8.34 5 7.68 5 7 5 C6.67 7.31 6.34 9.62 6 12 C4.68 12 3.36 12 2 12 C0.86235649 7.73383684 0 4.43513689 0 0 Z " fill="#AFBDCC" transform="translate(486,19)"/>
<path d="M0 0 C0.66 0 1.32 0 2 0 C2.33 1.98 2.66 3.96 3 6 C3.66 6 4.32 6 5 6 C5 4.35 5 2.7 5 1 C6.65 0.67 8.3 0.34 10 0 C10.66 1.32 11.32 2.64 12 4 C12.33 2.68 12.66 1.36 13 0 C13.99 0 14.98 0 16 0 C15 8.57142857 15 8.57142857 14 12 C12.68 12 11.36 12 10 12 C9.67 9.36 9.34 6.72 9 4 C8.34 4 7.68 4 7 4 C6.67 6.64 6.34 9.28 6 12 C4.68 12 3.36 12 2 12 C0.86235649 7.73383684 0 4.43513689 0 0 Z " fill="#A6B2C5" transform="translate(585,19)"/>
<path d="M0 0 C3.0625 0.3125 3.0625 0.3125 4.9375 1.4375 C6.59104531 4.19340884 6.45615568 6.16325452 6.0625 9.3125 C4.9375 11.1875 4.9375 11.1875 3.0625 12.3125 C0 12.625 0 12.625 -2.9375 12.3125 C-4.9375 10.3125 -4.9375 10.3125 -5.203125 8.4375 C-5.19796875 7.73625 -5.1928125 7.035 -5.1875 6.3125 C-5.19265625 5.61125 -5.1978125 4.91 -5.203125 4.1875 C-4.71881191 0.76881939 -3.24057423 0.34474194 0 0 Z " fill="#B2BAC5" transform="translate(50.9375,47.6875)"/>
<path d="M0 0 C2 2 2 2 2.125 4.625 C2.08375 5.40875 2.0425 6.1925 2 7 C-0.31 7 -2.62 7 -5 7 C-4.67 7.66 -4.34 8.32 -4 9 C-2.02 9 -0.04 9 2 9 C2 9.99 2 10.98 2 12 C-5.35678392 12.36180905 -5.35678392 12.36180905 -8 10.875 C-9.47901666 8.10184376 -9.38601984 6.08815875 -9 3 C-6.78679539 -0.68867435 -4.02162985 -0.42783296 0 0 Z " fill="#7E95B1" transform="translate(235,19)"/>
<path d="M0 0 C3.375 -0.125 3.375 -0.125 7 0 C9 2 9 2 9.1953125 4.3828125 C9.17210937 5.28773437 9.14890625 6.19265625 9.125 7.125 C9.10695312 8.03507812 9.08890625 8.94515625 9.0703125 9.8828125 C9.04710937 10.58148438 9.02390625 11.28015625 9 12 C7.54176788 12.0270043 6.08339325 12.04639787 4.625 12.0625 C3.81289062 12.07410156 3.00078125 12.08570313 2.1640625 12.09765625 C0 12 0 12 -2 11 C-1.125 6.125 -1.125 6.125 0 5 C1.99958364 4.95919217 4.00045254 4.95745644 6 5 C5.67 4.34 5.34 3.68 5 3 C3.35 3 1.7 3 0 3 C0 2.01 0 1.02 0 0 Z " fill="#B0B4BE" transform="translate(209,19)"/>
<path d="M0 0 C3.0625 0.3125 3.0625 0.3125 4.9375 1.5625 C6.0625 3.3125 6.0625 3.3125 6.0625 7.3125 C3.4225 7.3125 0.7825 7.3125 -1.9375 7.3125 C-1.6075 7.9725 -1.2775 8.6325 -0.9375 9.3125 C1.0425 9.3125 3.0225 9.3125 5.0625 9.3125 C5.0625 10.3025 5.0625 11.2925 5.0625 12.3125 C3.78375 12.374375 2.505 12.43625 1.1875 12.5 C0.46820313 12.53480469 -0.25109375 12.56960937 -0.9921875 12.60546875 C-1.63414062 12.50878906 -2.27609375 12.41210938 -2.9375 12.3125 C-5.38647847 8.63903229 -5.25287716 6.64893601 -4.9375 2.3125 C-2.9375 0.3125 -2.9375 0.3125 0 0 Z " fill="#B0BCCB" transform="translate(508.9375,18.6875)"/>
<path d="M0 0 C0.99 0 1.98 0 3 0 C3 1.65 3 3.3 3 5 C3.94875 4.95875 4.8975 4.9175 5.875 4.875 C9 5 9 5 11 7 C11.1953125 9.3828125 11.1953125 9.3828125 11.125 12.125 C11.10695313 13.03507812 11.08890625 13.94515625 11.0703125 14.8828125 C11.04710937 15.58148438 11.02390625 16.28015625 11 17 C10.01 17 9.02 17 8 17 C7.67 14.03 7.34 11.06 7 8 C5.68 8 4.36 8 3 8 C3 10.97 3 13.94 3 17 C2.01 17 1.02 17 0 17 C0 11.39 0 5.78 0 0 Z " fill="#AFBCC6" transform="translate(618,14)"/>
<path d="M0 0 C3.0625 0.3125 3.0625 0.3125 4.9375 1.5625 C6.0625 3.3125 6.0625 3.3125 6.0625 7.3125 C3.4225 7.3125 0.7825 7.3125 -1.9375 7.3125 C-1.6075 7.9725 -1.2775 8.6325 -0.9375 9.3125 C1.0425 9.3125 3.0225 9.3125 5.0625 9.3125 C5.0625 10.3025 5.0625 11.2925 5.0625 12.3125 C3.78375 12.374375 2.505 12.43625 1.1875 12.5 C0.46820313 12.53480469 -0.25109375 12.56960937 -0.9921875 12.60546875 C-1.63414062 12.50878906 -2.27609375 12.41210938 -2.9375 12.3125 C-5.38647847 8.63903229 -5.25287716 6.64893601 -4.9375 2.3125 C-2.9375 0.3125 -2.9375 0.3125 0 0 Z " fill="#B6BFCA" transform="translate(266.9375,18.6875)"/>
<path d="M0 0 C3.0625 0.3125 3.0625 0.3125 4.9375 1.5625 C6.0625 3.3125 6.0625 3.3125 6.0625 7.3125 C3.4225 7.3125 0.7825 7.3125 -1.9375 7.3125 C-1.6075 7.9725 -1.2775 8.6325 -0.9375 9.3125 C1.0425 9.3125 3.0225 9.3125 5.0625 9.3125 C5.0625 10.3025 5.0625 11.2925 5.0625 12.3125 C-1.28257042 12.67165493 -1.28257042 12.67165493 -3.875 11.25 C-5.52912584 8.23365289 -5.24325763 5.67583392 -4.9375 2.3125 C-2.9375 0.3125 -2.9375 0.3125 0 0 Z " fill="#95A2B8" transform="translate(56.9375,18.6875)"/>
<path d="M0 0 C3 0.25 3 0.25 5 2.25 C5.125 4.875 5.125 4.875 5 7.25 C2.69 7.25 0.38 7.25 -2 7.25 C-1.67 7.91 -1.34 8.57 -1 9.25 C0.98 9.25 2.96 9.25 5 9.25 C5 10.24 5 11.23 5 12.25 C-1.0546875 12.4453125 -1.0546875 12.4453125 -3 12.25 C-5 10.25 -5 10.25 -5.265625 8.375 C-5.26046875 7.67375 -5.2553125 6.9725 -5.25 6.25 C-5.25515625 5.54875 -5.2603125 4.8475 -5.265625 4.125 C-4.77431879 0.65695617 -3.28862917 0.27405243 0 0 Z " fill="#B6BFCC" transform="translate(125,18.75)"/>
<path d="M0 0 C3 0.25 3 0.25 5 2.25 C5.125 4.875 5.125 4.875 5 7.25 C2.69 7.25 0.38 7.25 -2 7.25 C-1.67 7.91 -1.34 8.57 -1 9.25 C0.98 9.25 2.96 9.25 5 9.25 C5 10.24 5 11.23 5 12.25 C-1.0546875 12.4453125 -1.0546875 12.4453125 -3 12.25 C-5 10.25 -5 10.25 -5.265625 8.375 C-5.26046875 7.67375 -5.2553125 6.9725 -5.25 6.25 C-5.25515625 5.54875 -5.2603125 4.8475 -5.265625 4.125 C-4.77431879 0.65695617 -3.28862917 0.27405243 0 0 Z " fill="#B6BFCC" transform="translate(98,18.75)"/>
<path d="M0 0 C0.99 0 1.98 0 3 0 C3.33 2.64 3.66 5.28 4 8 C4.99 7.01 5.98 6.02 7 5 C7.99 5.33 8.98 5.66 10 6 C9.01 7.485 9.01 7.485 8 9 C8.3830153 11.96836854 9.59583294 14.37888816 11 17 C9.68 17 8.36 17 7 17 C6.34 15.35 5.68 13.7 5 12 C4.34 12 3.68 12 3 12 C3 13.65 3 15.3 3 17 C2.01 17 1.02 17 0 17 C0 11.39 0 5.78 0 0 Z " fill="#B2BCCA" transform="translate(436,14)"/>
<path d="M0 0 C2.33294775 -0.04241723 4.66702567 -0.04092937 7 0 C8 1 8 1 8.09765625 3.50390625 C8.08605469 4.51324219 8.07445313 5.52257813 8.0625 6.5625 C8.05347656 7.57441406 8.04445313 8.58632813 8.03515625 9.62890625 C8.02355469 10.41136719 8.01195313 11.19382812 8 12 C6.52093108 12.02689216 5.04172517 12.04634621 3.5625 12.0625 C2.32693359 12.07990234 2.32693359 12.07990234 1.06640625 12.09765625 C-1 12 -1 12 -2 11 C-2.04063832 9.33382885 -2.042721 7.66611905 -2 6 C1.465 5.505 1.465 5.505 5 5 C5 4.01 5 3.02 5 2 C3.35 2.33 1.7 2.66 0 3 C0 2.01 0 1.02 0 0 Z " fill="#B7BCC6" transform="translate(112,48)"/>
<path d="M0 0 C3 0.25 3 0.25 5 2.25 C5.125 4.875 5.125 4.875 5 7.25 C2.69 7.25 0.38 7.25 -2 7.25 C-1.67 7.91 -1.34 8.57 -1 9.25 C0.98 9.25 2.96 9.25 5 9.25 C5 10.24 5 11.23 5 12.25 C3.72125 12.311875 2.4425 12.37375 1.125 12.4375 C0.40570312 12.47230469 -0.31359375 12.50710937 -1.0546875 12.54296875 C-1.69664062 12.44628906 -2.33859375 12.34960938 -3 12.25 C-5.44897847 8.57653229 -5.31537716 6.58643601 -5 2.25 C-3 0.25 -3 0.25 0 0 Z " fill="#AEB6C5" transform="translate(561,18.75)"/>
<path d="M0 0 C6.57692308 0.57692308 6.57692308 0.57692308 8 2 C8.04063832 3.66617115 8.042721 5.33388095 8 7 C5.36 7 2.72 7 0 7 C0.33 7.66 0.66 8.32 1 9 C4.02934491 9.65772428 4.02934491 9.65772428 7 10 C7 10.66 7 11.32 7 12 C0.67402207 12.35807422 0.67402207 12.35807422 -2 10.9375 C-3.61647822 7.80557344 -2.78665296 5.32814714 -2 2 C-1.34 1.34 -0.68 0.68 0 0 Z " fill="#B6C3D2" transform="translate(366,19)"/>
<path d="M0 0 C2.33294775 -0.04241723 4.66702567 -0.04092937 7 0 C8 1 8 1 8.09765625 3.50390625 C8.08605469 4.51324219 8.07445312 5.52257812 8.0625 6.5625 C8.05347656 7.57441406 8.04445312 8.58632813 8.03515625 9.62890625 C8.02355469 10.41136719 8.01195312 11.19382812 8 12 C5.03 12 2.06 12 -1 12 C-1.625 9.625 -1.625 9.625 -2 7 C0 5 0 5 3.125 4.875 C4.07375 4.91625 5.0225 4.9575 6 5 C5.67 4.34 5.34 3.68 5 3 C3.35 3 1.7 3 0 3 C0 2.01 0 1.02 0 0 Z " fill="#AEBFD0" transform="translate(134,19)"/>
<path d="M0 0 C2.33294775 -0.04241723 4.66702567 -0.04092937 7 0 C8 1 8 1 8.09765625 3.50390625 C8.08605469 4.51324219 8.07445313 5.52257812 8.0625 6.5625 C8.05347656 7.57441406 8.04445313 8.58632813 8.03515625 9.62890625 C8.02355469 10.41136719 8.01195313 11.19382812 8 12 C5.03 12 2.06 12 -1 12 C-1.625 9.625 -1.625 9.625 -2 7 C0 5 0 5 3.125 4.875 C4.07375 4.91625 5.0225 4.9575 6 5 C5.67 4.34 5.34 3.68 5 3 C3.35 3 1.7 3 0 3 C0 2.01 0 1.02 0 0 Z " fill="#B4C0D0" transform="translate(72,19)"/>
<path d="M0 0 C6.8359375 -0.1953125 6.8359375 -0.1953125 9 0 C11 2 11 2 11.1953125 4.3828125 C11.17210937 5.28773437 11.14890625 6.19265625 11.125 7.125 C11.10695313 8.03507812 11.08890625 8.94515625 11.0703125 9.8828125 C11.04710937 10.58148438 11.02390625 11.28015625 11 12 C10.01 12 9.02 12 8 12 C7.67 9.03 7.34 6.06 7 3 C6.01 3 5.02 3 4 3 C3.67 5.97 3.34 8.94 3 12 C2.01 12 1.02 12 0 12 C0 8.04 0 4.08 0 0 Z " fill="#B2BAC5" transform="translate(455,19)"/>
<path d="M0 0 C6.8359375 -0.1953125 6.8359375 -0.1953125 9 0 C11 2 11 2 11.1953125 4.3828125 C11.17210937 5.28773437 11.14890625 6.19265625 11.125 7.125 C11.10695313 8.03507812 11.08890625 8.94515625 11.0703125 9.8828125 C11.04710937 10.58148438 11.02390625 11.28015625 11 12 C10.01 12 9.02 12 8 12 C7.67 9.03 7.34 6.06 7 3 C6.01 3 5.02 3 4 3 C3.67 5.97 3.34 8.94 3 12 C2.01 12 1.02 12 0 12 C0 8.04 0 4.08 0 0 Z " fill="#B3BCC6" transform="translate(350,19)"/>
<path d="M0 0 C-0.99 1.485 -0.99 1.485 -2 3 C-2.66 3 -3.32 3 -4 3 C-4.33 3.66 -4.66 4.32 -5 5 C-3.35 5 -1.7 5 0 5 C0.33 4.34 0.66 3.68 1 3 C1 4.32 1 5.64 1 7 C-0.98 7 -2.96 7 -5 7 C-4.67 7.66 -4.34 8.32 -4 9 C-1.47266765 9.65555119 -1.47266765 9.65555119 1 10 C1 10.66 1 11.32 1 12 C-5.3782235 12.36103152 -5.3782235 12.36103152 -7.9375 10.875 C-9.50422245 8.11019567 -9.38976435 6.11811483 -9 3 C-6.77089201 -0.71517998 -4.03410755 -0.2689405 0 0 Z " fill="#AEBDCE" transform="translate(316,19)"/>
<path d="M0 0 C1.134375 0.020625 2.26875 0.04125 3.4375 0.0625 C3.4375 1.0525 3.4375 2.0425 3.4375 3.0625 C1.7875 2.7325 0.1375 2.4025 -1.5625 2.0625 C0.37004772 4.0870738 2.06908688 5.48355792 4.4375 7.0625 C3.5625 10.9375 3.5625 10.9375 2.4375 12.0625 C-0.23308851 12.20365161 -2.88682238 12.10497107 -5.5625 12.0625 C-5.5625 11.0725 -5.5625 10.0825 -5.5625 9.0625 C-2.5925 9.5575 -2.5925 9.5575 0.4375 10.0625 C-1.19662443 8.35409719 -2.43156094 7.12796953 -4.5625 6.0625 C-4.605221 4.39638095 -4.60313832 2.72867115 -4.5625 1.0625 C-3.5625 0.0625 -3.5625 0.0625 0 0 Z " fill="#B3BDCB" transform="translate(573.5625,18.9375)"/>
<path d="M0 0 C6.93359375 -0.09765625 6.93359375 -0.09765625 9 0 C10 1 10 1 10.09765625 3.50390625 C10.08605469 4.51324219 10.07445312 5.52257812 10.0625 6.5625 C10.05347656 7.57441406 10.04445312 8.58632813 10.03515625 9.62890625 C10.02355469 10.41136719 10.01195312 11.19382812 10 12 C9.01 12 8.02 12 7 12 C7 8.7 7 5.4 7 2 C5.35 2.33 3.7 2.66 2 3 C2 5.97 2 8.94 2 12 C1.34 12 0.68 12 0 12 C0 8.04 0 4.08 0 0 Z " fill="#B0C0CD" transform="translate(240,19)"/>
<path d="M0 0 C0 0.99 0 1.98 0 3 C-2.97 2.505 -2.97 2.505 -6 2 C-6 2.66 -6 3.32 -6 4 C-4.02 4.66 -2.04 5.32 0 6 C0 7.65 0 9.3 0 11 C-2.95664519 12.4783226 -5.74229737 12.06032783 -9 12 C-9 11.01 -9 10.02 -9 9 C-6.03 9.495 -6.03 9.495 -3 10 C-4.93254772 7.9754262 -6.63158688 6.57894208 -9 5 C-9 3.68 -9 2.36 -9 1 C-6.04335481 -0.4783226 -3.25770263 -0.06032783 0 0 Z " fill="#AFB8C6" transform="translate(329,19)"/>
<path d="M0 0 C3.375 -0.125 3.375 -0.125 7 0 C9 2 9 2 9.1953125 4.3828125 C9.17210937 5.28773437 9.14890625 6.19265625 9.125 7.125 C9.10695313 8.03507812 9.08890625 8.94515625 9.0703125 9.8828125 C9.04710937 10.58148438 9.02390625 11.28015625 9 12 C6.03 12 3.06 12 0 12 C-0.33 10.35 -0.66 8.7 -1 7 C-0.34 7 0.32 7 1 7 C1 7.99 1 8.98 1 10 C2.98491642 9.73323796 2.98491642 9.73323796 5 9 C5.33 8.01 5.66 7.02 6 6 C5.34 5.67 4.68 5.34 4 5 C4.66 5 5.32 5 6 5 C5.67 4.34 5.34 3.68 5 3 C3.35 3 1.7 3 0 3 C0 2.01 0 1.02 0 0 Z " fill="#BCC6D3" transform="translate(424,19)"/>
<path d="M0 0 C1.98 0 3.96 0 6 0 C6 0.66 6 1.32 6 2 C4.68 2 3.36 2 2 2 C2 2.99 2 3.98 2 5 C2.99 5 3.98 5 5 5 C5 5.66 5 6.32 5 7 C4.01 7 3.02 7 2 7 C2 10.3 2 13.6 2 17 C1.01 17 0.02 17 -1 17 C-1 13.7 -1 10.4 -1 7 C-1.66 7 -2.32 7 -3 7 C-3 6.34 -3 5.68 -3 5 C-2.34 5 -1.68 5 -1 5 C-0.67 3.35 -0.34 1.7 0 0 Z " fill="#B4BFCD" transform="translate(187,14)"/>
<path d="M0 0 C0.33 0 0.66 0 1 0 C1.33 1.65 1.66 3.3 2 5 C2.78375 4.95875 3.5675 4.9175 4.375 4.875 C7 5 7 5 9 7 C9.265625 8.875 9.265625 8.875 9.25 11 C9.25515625 11.70125 9.2603125 12.4025 9.265625 13.125 C9 15 9 15 7 17 C3.375 16.625 3.375 16.625 0 16 C0 13.69 0 11.38 0 9 C0.33 9 0.66 9 1 9 C1.33 10.65 1.66 12.3 2 14 C2.99 14 3.98 14 5 14 C5 12.02 5 10.04 5 8 C3.35 7.67 1.7 7.34 0 7 C0 4.69 0 2.38 0 0 Z " fill="#BABDC7" transform="translate(519,14)"/>
<path d="M0 0 C2.31 0 4.62 0 7 0 C7 0.66 7 1.32 7 2 C5.35 2 3.7 2 2 2 C2 2.66 2 3.32 2 4 C3.98 4.66 5.96 5.32 8 6 C8 7.65 8 9.3 8 11 C5.04335481 12.4783226 2.25770263 12.06032783 -1 12 C-1 11.01 -1 10.02 -1 9 C1.97 9.495 1.97 9.495 5 10 C3.06745228 7.9754262 1.36841312 6.57894208 -1 5 C-0.67 3.35 -0.34 1.7 0 0 Z " fill="#AEBDCF" transform="translate(386,19)"/>
<path d="M0 0 C2.31 0 4.62 0 7 0 C7 0.66 7 1.32 7 2 C5.35 2 3.7 2 2 2 C2 2.66 2 3.32 2 4 C2.804375 4.2475 3.60875 4.495 4.4375 4.75 C7 6 7 6 7.9375 8 C7.958125 8.66 7.97875 9.32 8 10 C6 12 6 12 2.375 12.125 C1.26125 12.08375 0.1475 12.0425 -1 12 C-1 11.01 -1 10.02 -1 9 C1.97 9.495 1.97 9.495 5 10 C3.62308038 7.24616077 1.63279958 6.48516899 -1 5 C-0.67 3.35 -0.34 1.7 0 0 Z " fill="#B3BECD" transform="translate(82,48)"/>
<path d="M0 0 C1.32 0.33 2.64 0.66 4 1 C4.28875 2.0725 4.5775 3.145 4.875 4.25 C5.81937632 7.81240488 5.81937632 7.81240488 7.125 10.1875 C8 12 8 12 8 16 C6.35 15.67 4.7 15.34 3 15 C2.49564306 13.0636296 1.99666126 11.12585854 1.5 9.1875 C1.2215625 8.10855469 0.943125 7.02960937 0.65625 5.91796875 C0 3 0 3 0 0 Z " fill="#A4B5C5" transform="translate(30,15)"/>
<path d="M0 0 C0 0.66 0 1.32 0 2 C-1.65 2 -3.3 2 -5 2 C-5 2.66 -5 3.32 -5 4 C-3.02 4.66 -1.04 5.32 1 6 C1 7.65 1 9.3 1 11 C-1.95664519 12.4783226 -4.74229737 12.06032783 -8 12 C-8 11.01 -8 10.02 -8 9 C-5.03 9.495 -5.03 9.495 -2 10 C-3.93254772 7.9754262 -5.63158688 6.57894208 -8 5 C-8 3.68 -8 2.36 -8 1 C-5.29120665 -0.35439668 -2.99066732 -0.06501451 0 0 Z " fill="#B3C0D0" transform="translate(538,19)"/>
<path d="M0 0 C6.0546875 -0.1953125 6.0546875 -0.1953125 8 0 C8.66 0.66 9.32 1.32 10 2 C9.75 4.5625 9.75 4.5625 9 7 C6.13822943 8.43088528 4.06624227 7.59991697 1 7 C0.67 4.69 0.34 2.38 0 0 Z " fill="#B7BECA" transform="translate(33,44)"/>
<path d="M0 0 C0.99 0 1.98 0 3 0 C3 0.99 3 1.98 3 3 C3.99 3 4.98 3 6 3 C6 3.66 6 4.32 6 5 C5.01 5 4.02 5 3 5 C3 7.64 3 10.28 3 13 C3.99 13 4.98 13 6 13 C6 13.66 6 14.32 6 15 C4.33388095 15.042721 2.66617115 15.04063832 1 15 C0 14 0 14 -0.09765625 11.93359375 C-0.08025391 10.69802734 -0.08025391 10.69802734 -0.0625 9.4375 C-0.05347656 8.61121094 -0.04445313 7.78492188 -0.03515625 6.93359375 C-0.02355469 6.29550781 -0.01195313 5.65742187 0 5 C-0.66 5 -1.32 5 -2 5 C-2 4.34 -2 3.68 -2 3 C-1.34 3 -0.68 3 0 3 C0 2.01 0 1.02 0 0 Z " fill="#B0B7C2" transform="translate(93,45)"/>
<path d="M0 0 C0.66 0 1.32 0 2 0 C2 5.61 2 11.22 2 17 C-0.64 17 -3.28 17 -6 17 C-8 14 -8 14 -7.625 11.3125 C-7.41875 10.549375 -7.2125 9.78625 -7 9 C-6.773125 9.639375 -6.54625 10.27875 -6.3125 10.9375 C-5.14749104 13.27193661 -5.14749104 13.27193661 -2.375 13.75 C-1.59125 13.8325 -0.8075 13.915 0 14 C-0.185625 12.989375 -0.37125 11.97875 -0.5625 10.9375 C-0.99768247 7.02085773 -0.70853021 3.85755337 0 0 Z " fill="#BCC6CF" transform="translate(283,14)"/>
<path d="M0 0 C0.99 0 1.98 0 3 0 C3 0.99 3 1.98 3 3 C3.99 3 4.98 3 6 3 C6 3.66 6 4.32 6 5 C5.01 5 4.02 5 3 5 C3 7.64 3 10.28 3 13 C3.99 13 4.98 13 6 13 C6 13.66 6 14.32 6 15 C4.33388095 15.042721 2.66617115 15.04063832 1 15 C0 14 0 14 -0.09765625 11.93359375 C-0.08025391 10.69802734 -0.08025391 10.69802734 -0.0625 9.4375 C-0.05347656 8.61121094 -0.04445312 7.78492188 -0.03515625 6.93359375 C-0.02355469 6.29550781 -0.01195312 5.65742188 0 5 C-0.66 5 -1.32 5 -2 5 C-2 4.34 -2 3.68 -2 3 C-1.34 3 -0.68 3 0 3 C0 2.01 0 1.02 0 0 Z " fill="#B1C1D0" transform="translate(254,16)"/>
<path d="M0 0 C0.99 0 1.98 0 3 0 C3 0.99 3 1.98 3 3 C3.99 3 4.98 3 6 3 C6 3.66 6 4.32 6 5 C5.01 5 4.02 5 3 5 C3 7.64 3 10.28 3 13 C3.99 13 4.98 13 6 13 C6 13.66 6 14.32 6 15 C4.33388095 15.042721 2.66617115 15.04063832 1 15 C0 14 0 14 -0.09765625 11.93359375 C-0.08025391 10.69802734 -0.08025391 10.69802734 -0.0625 9.4375 C-0.05347656 8.61121094 -0.04445312 7.78492188 -0.03515625 6.93359375 C-0.02355469 6.29550781 -0.01195312 5.65742188 0 5 C-0.66 5 -1.32 5 -2 5 C-2 4.34 -2 3.68 -2 3 C-1.34 3 -0.68 3 0 3 C0 2.01 0 1.02 0 0 Z " fill="#AEB5C0" transform="translate(200,16)"/>
<path d="M0 0 C0.99 0 1.98 0 3 0 C3 0.99 3 1.98 3 3 C3.99 3 4.98 3 6 3 C6 3.66 6 4.32 6 5 C5.01 5 4.02 5 3 5 C3 7.64 3 10.28 3 13 C3.99 13 4.98 13 6 13 C6 13.66 6 14.32 6 15 C4.33388095 15.042721 2.66617115 15.04063832 1 15 C0 14 0 14 -0.09765625 11.93359375 C-0.08025391 10.69802734 -0.08025391 10.69802734 -0.0625 9.4375 C-0.05347656 8.61121094 -0.04445313 7.78492188 -0.03515625 6.93359375 C-0.02355469 6.29550781 -0.01195313 5.65742188 0 5 C-0.66 5 -1.32 5 -2 5 C-2 4.34 -2 3.68 -2 3 C-1.34 3 -0.68 3 0 3 C0 2.01 0 1.02 0 0 Z " fill="#B5BDC8" transform="translate(112,16)"/>
<path d="M0 0 C0.66 0 1.32 0 2 0 C2 0.99 2 1.98 2 3 C2.99 3 3.98 3 5 3 C5 3.66 5 4.32 5 5 C4.01 5 3.02 5 2 5 C2.33 7.31 2.66 9.62 3 12 C3.99 12.33 4.98 12.66 6 13 C6 13.66 6 14.32 6 15 C4.02 15 2.04 15 0 15 C-2.27571116 5.98468271 -2.27571116 5.98468271 -1.125 1.875 C-0.75375 1.25625 -0.3825 0.6375 0 0 Z " fill="#AFC1D3" transform="translate(74,45)"/>
<path d="M0 0 C0 0.99 0 1.98 0 3 C0.99 3 1.98 3 3 3 C3 3.66 3 4.32 3 5 C2.01 5 1.02 5 0 5 C0 7.64 0 10.28 0 13 C0.99 13 1.98 13 3 13 C3 13.66 3 14.32 3 15 C1.33388095 15.042721 -0.33382885 15.04063832 -2 15 C-3 14 -3 14 -3.09765625 11.93359375 C-3.08025391 10.69802734 -3.08025391 10.69802734 -3.0625 9.4375 C-3.05347656 8.61121094 -3.04445313 7.78492188 -3.03515625 6.93359375 C-3.02355469 6.29550781 -3.01195312 5.65742188 -3 5 C-3.66 5 -4.32 5 -5 5 C-5 3 -5 3 -3.625 1.375 C-2 0 -2 0 0 0 Z " fill="#B1B2C2" transform="translate(613,16)"/>
<path d="M0 0 C0 0.99 0 1.98 0 3 C0.99 3 1.98 3 3 3 C3 3.66 3 4.32 3 5 C2.01 5 1.02 5 0 5 C0 7.64 0 10.28 0 13 C0.99 13 1.98 13 3 13 C3 13.66 3 14.32 3 15 C1.33388095 15.042721 -0.33382885 15.04063832 -2 15 C-3 14 -3 14 -3.09765625 11.93359375 C-3.08025391 10.69802734 -3.08025391 10.69802734 -3.0625 9.4375 C-3.05347656 8.61121094 -3.04445313 7.78492188 -3.03515625 6.93359375 C-3.02355469 6.29550781 -3.01195312 5.65742188 -3 5 C-3.66 5 -4.32 5 -5 5 C-5 3 -5 3 -3.625 1.375 C-2 0 -2 0 0 0 Z " fill="#ADB6C8" transform="translate(551,16)"/>
<path d="M0 0 C0.99 0 1.98 0 3 0 C3 5.61 3 11.22 3 17 C2.01 17 1.02 17 0 17 C0 11.39 0 5.78 0 0 Z " fill="#B2BBC7" transform="translate(221,14)"/>
<path d="M0 0 C2.64 0 5.28 0 8 0 C7.67 0.99 7.34 1.98 7 3 C6.01 3.33 5.02 3.66 4 4 C3.67 6.64 3.34 9.28 3 12 C2.01 12 1.02 12 0 12 C0 8.04 0 4.08 0 0 Z " fill="#AFBBC9" transform="translate(101,48)"/>
<path d="M0 0 C0.33 0 0.66 0 1 0 C1 1.65 1 3.3 1 5 C3.475 5.99 3.475 5.99 6 7 C6 7.66 6 8.32 6 9 C3.03 8.505 3.03 8.505 0 8 C-0.33 8.66 -0.66 9.32 -1 10 C-1 9.34 -1 8.68 -1 8 C-3.31 8.33 -5.62 8.66 -8 9 C-8.33 8.01 -8.66 7.02 -9 6 C-6.69 6 -4.38 6 -2 6 C-1.855625 5.38125 -1.71125 4.7625 -1.5625 4.125 C-1 2 -1 2 0 0 Z " fill="#435C89" transform="translate(568,20)"/>
<path d="M0 0 C2.64 0 5.28 0 8 0 C7.67 0.99 7.34 1.98 7 3 C6.01 3.33 5.02 3.66 4 4 C3.67 6.64 3.34 9.28 3 12 C2.01 12 1.02 12 0 12 C0 8.04 0 4.08 0 0 Z " fill="#A2B6CA" transform="translate(376,19)"/>
<path d="M0 0 C1.32 0 2.64 0 4 0 C4 3.96 4 7.92 4 12 C2.68 12 1.36 12 0 12 C0 8.04 0 4.08 0 0 Z " fill="#829FBC" transform="translate(330,19)"/>
<path d="M0 0 C2.875 -0.125 2.875 -0.125 6 0 C8 2 8 2 8.125 4.625 C8.08375 5.40875 8.0425 6.1925 8 7 C7.01 6.67 6.02 6.34 5 6 C2.66816393 5.32811503 0.33498858 4.66084583 -2 4 C-1.34 2.68 -0.68 1.36 0 0 Z " fill="#95A3BA" transform="translate(558,19)"/>
<path d="M0 0 C2.31 0 4.62 0 7 0 C7 0.99 7 1.98 7 3 C5.68 3 4.36 3 3 3 C3 5.97 3 8.94 3 12 C2.01 12 1.02 12 0 12 C0 8.04 0 4.08 0 0 Z " fill="#B5BAC0" transform="translate(84,19)"/>
<path d="M0 0 C0.33 0.66 0.66 1.32 1 2 C2.98 2 4.96 2 7 2 C6.67 2.66 6.34 3.32 6 4 C4.68 4 3.36 4 2 4 C2.33 4.66 2.66 5.32 3 6 C4.98 6 6.96 6 9 6 C9 6.99 9 7.98 9 9 C2.59181818 9.36272727 2.59181818 9.36272727 0.0625 7.8125 C-1.34443368 5.41243666 -1.28792759 3.73531209 -1 1 C-0.67 0.67 -0.34 0.34 0 0 Z " fill="#B3BDCA" transform="translate(53,22)"/>
<path d="M0 0 C2.875 -0.125 2.875 -0.125 6 0 C8 2 8 2 8.125 4.625 C8.08375 5.40875 8.0425 6.1925 8 7 C5.36 7 2.72 7 0 7 C-0.33 7.66 -0.66 8.32 -1 9 C-1 7.35 -1 5.7 -1 4 C1.97 4.495 1.97 4.495 5 5 C4.67 4.34 4.34 3.68 4 3 C1.47266765 2.34444881 1.47266765 2.34444881 -1 2 C-0.67 1.34 -0.34 0.68 0 0 Z " fill="#B6C0CE" transform="translate(229,19)"/>
<path d="M0 0 C0.66 0 1.32 0 2 0 C1 8.57142857 1 8.57142857 0 12 C-1.32 12 -2.64 12 -4 12 C-4 8.7 -4 5.4 -4 2 C-3.34 2.66 -2.68 3.32 -2 4 C-1.34 2.68 -0.68 1.36 0 0 Z " fill="#9DAABF" transform="translate(500,19)"/>
<path d="M0 0 C0.66 0 1.32 0 2 0 C2.99250545 5.70690634 3.10477512 11.21408489 3 17 C2.01 17 1.02 17 0 17 C0 11.39 0 5.78 0 0 Z " fill="#A3BACD" transform="translate(618,14)"/>
<path d="M0 0 C2.23551759 3.35327639 2.17283528 3.90743657 1.625 7.6875 C1.51414062 8.49574219 1.40328125 9.30398437 1.2890625 10.13671875 C1.19367188 10.75160156 1.09828125 11.36648437 1 12 C0.67 11.34 0.34 10.68 0 10 C-0.99 10 -1.98 10 -3 10 C-3 7.36 -3 4.72 -3 2 C-2.01 2 -1.02 2 0 2 C0 1.34 0 0.68 0 0 Z " fill="#425686" transform="translate(260,19)"/>
<path d="M0 0 C2.5 0.125 2.5 0.125 3.5 1.125 C3.57226502 2.97787502 3.5838122 4.83333878 3.5625 6.6875 C3.55347656 7.69941406 3.54445312 8.71132813 3.53515625 9.75390625 C3.52355469 10.53636719 3.51195312 11.31882812 3.5 12.125 C2.51 12.125 1.52 12.125 0.5 12.125 C0.5 8.825 0.5 5.525 0.5 2.125 C-0.82 1.795 -2.14 1.465 -3.5 1.125 C-2.5 0.125 -2.5 0.125 0 0 Z " fill="#A6BECE" transform="translate(159.5,18.875)"/>
<path d="M0 0 C2.33294775 -0.04241723 4.66702567 -0.04092937 7 0 C8 1 8 1 8.09765625 3.50390625 C8.08605469 4.51324219 8.07445312 5.52257812 8.0625 6.5625 C8.05347656 7.57441406 8.04445312 8.58632813 8.03515625 9.62890625 C8.02355469 10.41136719 8.01195312 11.19382812 8 12 C7.34 12 6.68 12 6 12 C6 10.02 6 8.04 6 6 C5.01 5.67 4.02 5.34 3 5 C3.99 5 4.98 5 6 5 C5.67 4.34 5.34 3.68 5 3 C3.35 3 1.7 3 0 3 C0 2.01 0 1.02 0 0 Z " fill="#B8C1CF" transform="translate(134,19)"/>
<path d="M0 0 C2.125 0.9375 2.125 0.9375 4 2 C3.67 3.65 3.34 5.3 3 7 C1.68 7 0.36 7 -1 7 C-2 6 -2 6 -2.0625 3.4375 C-2.041875 2.633125 -2.02125 1.82875 -2 1 C-1.34 0.67 -0.68 0.34 0 0 Z " fill="#48638A" transform="translate(128,50)"/>
<path d="M0 0 C1.32 0.66 2.64 1.32 4 2 C4 3.65 4 5.3 4 7 C2.125 7.625 2.125 7.625 0 8 C-0.66 7.34 -1.32 6.68 -2 6 C-1.44444444 1.44444444 -1.44444444 1.44444444 0 0 Z " fill="#47608B" transform="translate(279,21)"/>
<path d="M0 0 C1.23556641 0.01740234 1.23556641 0.01740234 2.49609375 0.03515625 C3.32238281 0.04417969 4.14867187 0.05320312 5 0.0625 C5.63808594 0.07410156 6.27617187 0.08570312 6.93359375 0.09765625 C6.93359375 0.75765625 6.93359375 1.41765625 6.93359375 2.09765625 C5.94359375 2.09765625 4.95359375 2.09765625 3.93359375 2.09765625 C3.60359375 3.41765625 3.27359375 4.73765625 2.93359375 6.09765625 C2.93359375 4.77765625 2.93359375 3.45765625 2.93359375 2.09765625 C1.61359375 2.09765625 0.29359375 2.09765625 -1.06640625 2.09765625 C-1.06640625 3.74765625 -1.06640625 5.39765625 -1.06640625 7.09765625 C-2.05640625 6.76765625 -3.04640625 6.43765625 -4.06640625 6.09765625 C-2.99738005 0.14165312 -2.99738005 0.14165312 0 0 Z " fill="#B7C0CE" transform="translate(341.06640625,18.90234375)"/>
<path d="M0 0 C0.33 0 0.66 0 1 0 C1 2.31 1 4.62 1 7 C-1.31 7.33 -3.62 7.66 -6 8 C-6 10.31 -6 12.62 -6 15 C-6.66 15 -7.32 15 -8 15 C-8.1953125 8.9453125 -8.1953125 8.9453125 -8 7 C-6 5 -6 5 -3.375 4.875 C-2.59125 4.91625 -1.8075 4.9575 -1 5 C-0.67 3.35 -0.34 1.7 0 0 Z " fill="#B3C5D3" transform="translate(302,14)"/>
<path d="M0 0 C2.0625 0.4375 2.0625 0.4375 4 1 C4 2.98 4 4.96 4 7 C2.0625 7.5625 2.0625 7.5625 0 8 C-1 7 -1 7 -1.125 4 C-1 1 -1 1 0 0 Z " fill="#475A84" transform="translate(63,50)"/>
<path d="M0 0 C2.0625 0.4375 2.0625 0.4375 4 1 C4 2.98 4 4.96 4 7 C2.0625 7.5625 2.0625 7.5625 0 8 C-1 7 -1 7 -1.125 4 C-1 1 -1 1 0 0 Z " fill="#4A6188" transform="translate(521,21)"/>
<path d="M0 0 C2.0625 0.4375 2.0625 0.4375 4 1 C4 2.98 4 4.96 4 7 C2.0625 7.5625 2.0625 7.5625 0 8 C-1 7 -1 7 -1.125 4 C-1 1 -1 1 0 0 Z " fill="#445C8B" transform="translate(298,21)"/>
<path d="M0 0 C2.0625 0.4375 2.0625 0.4375 4 1 C4 2.98 4 4.96 4 7 C2.0625 7.5625 2.0625 7.5625 0 8 C-1 7 -1 7 -1.125 4 C-1 1 -1 1 0 0 Z " fill="#435A87" transform="translate(176,21)"/>
<path d="M0 0 C0.99 0 1.98 0 3 0 C3 3.96 3 7.92 3 12 C2.01 12 1.02 12 0 12 C0 8.04 0 4.08 0 0 Z " fill="#A6B9C8" transform="translate(603,19)"/>
<path d="M0 0 C0.99 0 1.98 0 3 0 C3 3.96 3 7.92 3 12 C2.01 12 1.02 12 0 12 C0 8.04 0 4.08 0 0 Z " fill="#ACB4C1" transform="translate(542,19)"/>
<path d="M0 0 C0.99 0 1.98 0 3 0 C3 3.96 3 7.92 3 12 C2.01 12 1.02 12 0 12 C0 8.04 0 4.08 0 0 Z " fill="#ADB6C3" transform="translate(449,19)"/>
<path d="M0 0 C3.125 0.25 3.125 0.25 5.0625 1.5 C6.125 3.25 6.125 3.25 5.8125 5.4375 C5.4721875 6.3346875 5.4721875 6.3346875 5.125 7.25 C4.795 5.6 4.465 3.95 4.125 2.25 C3.795 3.24 3.465 4.23 3.125 5.25 C1.475 5.25 -0.175 5.25 -1.875 5.25 C-1.875 4.26 -1.875 3.27 -1.875 2.25 C-2.535 1.92 -3.195 1.59 -3.875 1.25 C-2.875 0.25 -2.875 0.25 0 0 Z " fill="#8693AD" transform="translate(508.875,18.75)"/>
<path d="M0 0 C2.0625 0.4375 2.0625 0.4375 4 1 C4 2.98 4 4.96 4 7 C2.0625 7.5625 2.0625 7.5625 0 8 C-1 7 -1 7 -1.125 4 C-1 1 -1 1 0 0 Z " fill="#3F5A8B" transform="translate(50,50)"/>
<path d="M0 0 C2.00720923 0.28674418 4.0085944 0.61866701 6 1 C6 1.99 6 2.98 6 4 C3.09399739 5.25664978 1.20395416 6 -2 6 C-1.125 1.125 -1.125 1.125 0 0 Z " fill="#879AB7" transform="translate(209,24)"/>
<path d="M0 0 C0 1.65 0 3.3 0 5 C-3.01031744 5.93423645 -3.86650268 6.04449911 -7 5 C-7 3.68 -7 2.36 -7 1 C-4 0 -4 0 0 0 Z " fill="#8592AD" transform="translate(478,20)"/>
<path d="M0 0 C0.66 0.66 1.32 1.32 2 2 C1.625 4.125 1.625 4.125 1 6 C-0.65 6.33 -2.3 6.66 -4 7 C-4 6.01 -4 5.02 -4 4 C-4.66 4 -5.32 4 -6 4 C-6.33 5.32 -6.66 6.64 -7 8 C-7 6.35 -7 4.7 -7 3 C-3.535 2.505 -3.535 2.505 0 2 C0 1.34 0 0.68 0 0 Z " fill="#869DBA" transform="translate(117,51)"/>
<path d="M0 0 C0.66 0 1.32 0 2 0 C3.26237731 2.52475462 3.09856404 4.31200466 3.0625 7.125 C3.05347656 8.03507812 3.04445313 8.94515625 3.03515625 9.8828125 C3.02355469 10.58148438 3.01195312 11.28015625 3 12 C2.01 12 1.02 12 0 12 C0 8.04 0 4.08 0 0 Z " fill="#A0BCCD" transform="translate(402,19)"/>
<path d="M0 0 C0.33 0 0.66 0 1 0 C1.33 4.62 1.66 9.24 2 14 C3.65 14 5.3 14 7 14 C7 14.66 7 15.32 7 16 C4.69 16 2.38 16 0 16 C0 10.72 0 5.44 0 0 Z " fill="#B7CAD6" transform="translate(32,44)"/>
<path d="M0 0 C0.33 0.66 0.66 1.32 1 2 C1.66 2 2.32 2 3 2 C3 5.3 3 8.6 3 12 C2.01 12 1.02 12 0 12 C0 8.04 0 4.08 0 0 Z " fill="#B7BABC" transform="translate(146,19)"/>
<path d="M0 0 C3.375 -0.125 3.375 -0.125 7 0 C9 2 9 2 9.1953125 4.3828125 C9.17210937 5.28773437 9.14890625 6.19265625 9.125 7.125 C9.10695313 8.03507812 9.08890625 8.94515625 9.0703125 9.8828125 C9.04710937 10.58148438 9.02390625 11.28015625 9 12 C8.67 12 8.34 12 8 12 C7.87625 10.88625 7.7525 9.7725 7.625 8.625 C7.3534187 4.96896323 7.3534187 4.96896323 5 3 C2.41645782 2.83312552 2.41645782 2.83312552 0 3 C0 2.01 0 1.02 0 0 Z " fill="#ACB3C2" transform="translate(424,19)"/>
<path d="M0 0 C4.875 0.875 4.875 0.875 6 2 C6.04063832 3.66617115 6.042721 5.33388095 6 7 C5.34 6.34 4.68 5.68 4 5 C0.91652174 4.83318891 0.91652174 4.83318891 -2 5 C-1.34 3.35 -0.68 1.7 0 0 Z " fill="#8793AB" transform="translate(368,19)"/>
<path d="M0 0 C0.66 0.33 1.32 0.66 2 1 C1.125 4.875 1.125 4.875 0 6 C-2.67058851 6.14115161 -5.32432238 6.04247107 -8 6 C-8 5.01 -8 4.02 -8 3 C-5.03 3.495 -5.03 3.495 -2 4 C-2.33 3.01 -2.66 2.02 -3 1 C-2.01 0.67 -1.02 0.34 0 0 Z " fill="#A3AEC1" transform="translate(576,25)"/>
<path d="M0 0 C5.71428571 0.71428571 5.71428571 0.71428571 7 2 C7.14115161 4.67058851 7.04247107 7.32432238 7 10 C6.34 10 5.68 10 5 10 C4.7525 8.88625 4.505 7.7725 4.25 6.625 C3.38994661 2.95384802 3.38994661 2.95384802 0.875 1.5625 C0.25625 1.376875 -0.3625 1.19125 -1 1 C-0.67 0.67 -0.34 0.34 0 0 Z " fill="#B9BEC8" transform="translate(176,19)"/>
<path d="M0 0 C2 2 2 2 2.1953125 3.9453125 C2.13020833 5.96354167 2.06510417 7.98177083 2 10 C1.21625 9.195625 0.4325 8.39125 -0.375 7.5625 C-2.71982856 5.01309583 -2.71982856 5.01309583 -5 4 C-5 3.34 -5 2.68 -5 2 C-3.35 2 -1.7 2 0 2 C0 1.34 0 0.68 0 0 Z " fill="#4D5C82" transform="translate(89,48)"/>
<path d="M0 0 C0.33 0 0.66 0 1 0 C0.67 2.31 0.34 4.62 0 7 C-2.31 6.67 -4.62 6.34 -7 6 C-7.33 5.01 -7.66 4.02 -8 3 C-5.36 3 -2.72 3 0 3 C0 2.01 0 1.02 0 0 Z " fill="#4F5D82" transform="translate(374,23)"/>
<path d="M0 0 C0.66 0.33 1.32 0.66 2 1 C2 3.97 2 6.94 2 10 C1.67 8.68 1.34 7.36 1 6 C-1.99615946 4.6954344 -1.99615946 4.6954344 -5 4 C-5 3.34 -5 2.68 -5 2 C-3.35 2 -1.7 2 0 2 C0 1.34 0 0.68 0 0 Z " fill="#536184" transform="translate(538,19)"/>
<path d="M0 0 C1.4540625 0.0309375 1.4540625 0.0309375 2.9375 0.0625 C3.2675 0.7225 3.5975 1.3825 3.9375 2.0625 C3.6075 3.0525 3.2775 4.0425 2.9375 5.0625 C1.2875 5.0625 -0.3625 5.0625 -2.0625 5.0625 C-2.0625 4.0725 -2.0625 3.0825 -2.0625 2.0625 C-2.7225 1.7325 -3.3825 1.4025 -4.0625 1.0625 C-3.0625 0.0625 -3.0625 0.0625 0 0 Z " fill="#8193B2" transform="translate(267.0625,18.9375)"/>
<path d="M0 0 C0.66 0 1.32 0 2 0 C2.33 2.31 2.66 4.62 3 7 C3.99 7.33 4.98 7.66 6 8 C6 8.66 6 9.32 6 10 C4.33388095 10.042721 2.66617115 10.04063832 1 10 C0 9 0 9 -0.09765625 6.93359375 C-0.08605469 6.10988281 -0.07445312 5.28617188 -0.0625 4.4375 C-0.05347656 3.61121094 -0.04445313 2.78492188 -0.03515625 1.93359375 C-0.02355469 1.29550781 -0.01195312 0.65742188 0 0 Z " fill="#B5C4D4" transform="translate(610,21)"/>
<path d="M0 0 C1.65 0 3.3 0 5 0 C5.33 1.65 5.66 3.3 6 5 C3.36 5 0.72 5 -2 5 C-1.34 4.67 -0.68 4.34 0 4 C0 2.68 0 1.36 0 0 Z " fill="#7F93B0" transform="translate(73,26)"/>
<path d="M0 0 C2.71224618 1.61268692 5.37352812 3.24901874 8 5 C8 5.66 8 6.32 8 7 C5.03 6.505 5.03 6.505 2 6 C1.67 6.66 1.34 7.32 1 8 C-0.35439668 5.29120665 -0.06501451 2.99066732 0 0 Z " fill="#4A6187" transform="translate(528,22)"/>
<path d="M0 0 C0.33 0 0.66 0 1 0 C1.33 2.31 1.66 4.62 2 7 C2.99 7.33 3.98 7.66 5 8 C5 8.66 5 9.32 5 10 C3.33388095 10.042721 1.66617115 10.04063832 0 10 C-1 9 -1 9 -1.1328125 7.1875 C-1.13023437 6.465625 -1.12765625 5.74375 -1.125 5 C-1.12757813 4.278125 -1.13015625 3.55625 -1.1328125 2.8125 C-1 1 -1 1 0 0 Z " fill="#BCC5D1" transform="translate(201,21)"/>
<path d="M0 0 C1.85776765 3.13498292 2.20140476 5.37471432 2 9 C-0.64 8.67 -3.28 8.34 -6 8 C-6 7.34 -6 6.68 -6 6 C-4.35 5.67 -2.7 5.34 -1 5 C-0.67 3.35 -0.34 1.7 0 0 Z " fill="#4B5A7E" transform="translate(346,21)"/>
<path d="M0 0 C1.98 0 3.96 0 6 0 C6 1.65 6 3.3 6 5 C5.01 5.33 4.02 5.66 3 6 C2.01 5.34 1.02 4.68 0 4 C0 2.68 0 1.36 0 0 Z " fill="#7487A6" transform="translate(340,21)"/>
<path d="M0 0 C0.66 0 1.32 0 2 0 C2.33 2.64 2.66 5.28 3 8 C3.66 8 4.32 8 5 8 C5 9.32 5 10.64 5 12 C4.01 12 3.02 12 2 12 C0.86235649 7.73383684 0 4.43513689 0 0 Z " fill="#B7C5D1" transform="translate(585,19)"/>
<path d="M0 0 C0.99 0 1.98 0 3 0 C3.66 2.97 4.32 5.94 5 9 C4.01 9 3.02 9 2 9 C0.50178941 5.62902617 0 3.79557881 0 0 Z " fill="#ADB3C3" transform="translate(486,19)"/>
<path d="M0 0 C0.33 0 0.66 0 1 0 C1.33 1.65 1.66 3.3 2 5 C3.65 5 5.3 5 7 5 C8.43088528 7.86177057 7.59991697 9.93375773 7 13 C6.67 13 6.34 13 6 13 C5.67 11.35 5.34 9.7 5 8 C3.35 7.67 1.7 7.34 0 7 C0 4.69 0 2.38 0 0 Z " fill="#AAB8C8" transform="translate(519,14)"/>
<path d="M0 0 C2.31 0 4.62 0 7 0 C7 2.97 7 5.94 7 9 C6.67 8.01 6.34 7.02 6 6 C5.01 5.67 4.02 5.34 3 5 C3.99 5 4.98 5 6 5 C5.67 4.34 5.34 3.68 5 3 C3.35 3 1.7 3 0 3 C0 2.01 0 1.02 0 0 Z " fill="#B5C2D1" transform="translate(209,19)"/>
<path d="M0 0 C0.66 0 1.32 0 2 0 C2.33 1.98 2.66 3.96 3 6 C3.99 6.33 4.98 6.66 6 7 C6 7.66 6 8.32 6 9 C4.33388095 9.042721 2.66617115 9.04063832 1 9 C0 8 0 8 -0.09765625 6.15234375 C-0.06510417 4.1015625 -0.03255208 2.05078125 0 0 Z " fill="#BBC5D2" transform="translate(93,51)"/>
<path d="M0 0 C1.0625 1.8125 1.0625 1.8125 2 4 C1.67 4.99 1.34 5.98 1 7 C-1.31 7 -3.62 7 -6 7 C-6.33 6.01 -6.66 5.02 -7 4 C-4.69 4 -2.38 4 0 4 C0 2.68 0 1.36 0 0 Z " fill="#44567E" transform="translate(130,22)"/>
<path d="M0 0 C0.99 0 1.98 0 3 0 C3 3.3 3 6.6 3 10 C2.01 9.34 1.02 8.68 0 8 C-0.40843923 5.28796348 -0.13336867 2.7562858 0 0 Z " fill="#485881" transform="translate(183,21)"/>
<path d="M0 0 C0.66 0 1.32 0 2 0 C1.9129995 1.62600941 1.8048219 3.25089678 1.6875 4.875 C1.62949219 5.77992187 1.57148437 6.68484375 1.51171875 7.6171875 C1 10 1 10 -2 12 C-1 3.42857143 -1 3.42857143 0 0 Z " fill="#556084" transform="translate(601,19)"/>
<path d="M0 0 C2.00720923 0.28674418 4.0085944 0.61866701 6 1 C5.67 2.32 5.34 3.64 5 5 C3.68 5 2.36 5 1 5 C1 4.01 1 3.02 1 2 C0.34 1.67 -0.32 1.34 -1 1 C-0.67 0.67 -0.34 0.34 0 0 Z " fill="#7B8CAA" transform="translate(424,24)"/>
<path d="M0 0 C2 3 2 3 2 5 C2.99 5 3.98 5 5 5 C4.25 9.75 4.25 9.75 2 12 C0.86235649 7.73383684 0 4.43513689 0 0 Z " fill="#A5BCCE" transform="translate(41,19)"/>
<path d="M0 0 C0.33 0 0.66 0 1 0 C1 3.3 1 6.6 1 10 C0.67 8.68 0.34 7.36 0 6 C-2.99615946 4.6954344 -2.99615946 4.6954344 -6 4 C-6 3.34 -6 2.68 -6 2 C-3.03 2.495 -3.03 2.495 0 3 C0 2.01 0 1.02 0 0 Z " fill="#48547D" transform="translate(329,19)"/>
<path d="M0 0 C0 0.99 0 1.98 0 3 C-2.31 2.67 -4.62 2.34 -7 2 C-7 2.99 -7 3.98 -7 5 C-7.66 5 -8.32 5 -9 5 C-9 3.68 -9 2.36 -9 1 C-6.04335481 -0.4783226 -3.25770263 -0.06032783 0 0 Z " fill="#A8B6C9" transform="translate(329,19)"/>
<path d="M0 0 C0.33 0 0.66 0 1 0 C1 1.65 1 3.3 1 5 C-1.95664519 6.4783226 -4.74229737 6.06032783 -8 6 C-8 5.01 -8 4.02 -8 3 C-5.03 3.495 -5.03 3.495 -2 4 C-1.34 2.68 -0.68 1.36 0 0 Z " fill="#ACB7C7" transform="translate(538,25)"/>
<path d="M0 0 C2.475 0.495 2.475 0.495 5 1 C4.67 2.32 4.34 3.64 4 5 C2.68 5 1.36 5 0 5 C0 3.35 0 1.7 0 0 Z " fill="#3E5985" transform="translate(35,53)"/>
<path d="M0 0 C0.3403125 0.928125 0.3403125 0.928125 0.6875 1.875 C2.37929835 4.61410209 3.99244161 5.05024472 7 6 C6.67 6.66 6.34 7.32 6 8 C3.625 8.1875 3.625 8.1875 1 8 C-1 5 -1 5 -0.625 2.3125 C-0.41875 1.549375 -0.2125 0.78625 0 0 Z " fill="#B5BCCA" transform="translate(276,23)"/>
<path d="M0 0 C0.66 0.66 1.32 1.32 2 2 C5.08347826 2.16681109 5.08347826 2.16681109 8 2 C8 2.99 8 3.98 8 5 C5.36 5 2.72 5 0 5 C-0.33 4.34 -0.66 3.68 -1 3 C-0.67 2.01 -0.34 1.02 0 0 Z " fill="#ADB7C6" transform="translate(264,26)"/>
<path d="M0 0 C2.97 0.495 2.97 0.495 6 1 C6 2.65 6 4.3 6 6 C4.35 5.67 2.7 5.34 1 5 C0.67 3.35 0.34 1.7 0 0 Z " fill="#7588A8" transform="translate(134,24)"/>
<path d="M0 0 C4.70588235 0.70588235 4.70588235 0.70588235 6 2 C6.04063832 3.66617115 6.042721 5.33388095 6 7 C5.01 7.495 5.01 7.495 4 8 C3.9175 7.21625 3.835 6.4325 3.75 5.625 C3.27193661 2.85250896 3.27193661 2.85250896 0.9375 1.6875 C0.298125 1.460625 -0.34125 1.23375 -1 1 C-0.67 0.67 -0.34 0.34 0 0 Z " fill="#BAC5D3" transform="translate(50,48)"/>
<path d="M0 0 C2.475 0.495 2.475 0.495 5 1 C5 1.99 5 2.98 5 4 C3.35 4.33 1.7 4.66 0 5 C0 3.35 0 1.7 0 0 Z " fill="#405B8D" transform="translate(35,46)"/>
<path d="M0 0 C0.33 0.66 0.66 1.32 1 2 C2.98 2 4.96 2 7 2 C6.67 2.66 6.34 3.32 6 4 C4.35 4 2.7 4 1 4 C1 4.66 1 5.32 1 6 C0.34 6 -0.32 6 -1 6 C-1.042721 4.33388095 -1.04063832 2.66617115 -1 1 C-0.67 0.67 -0.34 0.34 0 0 Z " fill="#BBC7D5" transform="translate(557,22)"/>
<path d="M0 0 C0 1.65 0 3.3 0 5 C-0.66 4.34 -1.32 3.68 -2 3 C-4.58354218 2.83312552 -4.58354218 2.83312552 -7 3 C-6.67 2.01 -6.34 1.02 -6 0 C-3 -1 -3 -1 0 0 Z " fill="#798BA7" transform="translate(130,21)"/>
<path d="M0 0 C0.33 0 0.66 0 1 0 C1.33 2.31 1.66 4.62 2 7 C2.99 7.33 3.98 7.66 5 8 C5 8.66 5 9.32 5 10 C3.02 10 1.04 10 -1 10 C-0.67 6.7 -0.34 3.4 0 0 Z " fill="#B5BBC4" transform="translate(75,50)"/>
<path d="M0 0 C0.99 0.33 1.98 0.66 3 1 C2.1875 4.4375 2.1875 4.4375 1 8 C0.01 8.33 -0.98 8.66 -2 9 C-2.125 5.625 -2.125 5.625 -2 2 C-1.34 1.34 -0.68 0.68 0 0 Z " fill="#A0B8CB" transform="translate(61,48)"/>
<path d="M0 0 C0.33 0.66 0.66 1.32 1 2 C2.98 2 4.96 2 7 2 C6.67 2.66 6.34 3.32 6 4 C3.6859378 4.73075648 1.35171131 5.40138258 -1 6 C-1.042721 4.33388095 -1.04063832 2.66617115 -1 1 C-0.67 0.67 -0.34 0.34 0 0 Z " fill="#B9C7D5" transform="translate(53,22)"/>
<path d="M0 0 C0 1.65 0 3.3 0 5 C-0.66 4.34 -1.32 3.68 -2 3 C-4.58354218 2.83312552 -4.58354218 2.83312552 -7 3 C-6.67 2.01 -6.34 1.02 -6 0 C-3 -1 -3 -1 0 0 Z " fill="#7486A3" transform="translate(318,21)"/>
<path d="M0 0 C0 1.65 0 3.3 0 5 C-0.66 4.34 -1.32 3.68 -2 3 C-4.58354218 2.83312552 -4.58354218 2.83312552 -7 3 C-6.67 2.01 -6.34 1.02 -6 0 C-3 -1 -3 -1 0 0 Z " fill="#7588A5" transform="translate(103,21)"/>
<path d="M0 0 C0.33 0 0.66 0 1 0 C1.268125 0.969375 1.53625 1.93875 1.8125 2.9375 C2.204375 3.948125 2.59625 4.95875 3 6 C3.99 6.33 4.98 6.66 6 7 C6 7.66 6 8.32 6 9 C3.03 8.505 3.03 8.505 0 8 C0 5.36 0 2.72 0 0 Z " fill="#B9C4D3" transform="translate(60,51)"/>
<path d="M0 0 C1.98 0 3.96 0 6 0 C5.01 1.485 5.01 1.485 4 3 C3.34 3 2.68 3 2 3 C1.67 3.66 1.34 4.32 1 5 C0.34 5 -0.32 5 -1 5 C-0.67 3.35 -0.34 1.7 0 0 Z " fill="#B1B9C6" transform="translate(310,19)"/>
<path d="M0 0 C0.33 0 0.66 0 1 0 C1.33 2.31 1.66 4.62 2 7 C2.99 7.33 3.98 7.66 5 8 C5 8.66 5 9.32 5 10 C3.35 10 1.7 10 0 10 C0 6.7 0 3.4 0 0 Z " fill="#BFC8D1" transform="translate(549,21)"/>
<path d="M0 0 C0.66 0 1.32 0 2 0 C2.33 1.98 2.66 3.96 3 6 C1.68 6.33 0.36 6.66 -1 7 C-0.67 4.69 -0.34 2.38 0 0 Z " fill="#566B94" transform="translate(493,24)"/>
<path d="M0 0 C0.33 0.99 0.66 1.98 1 3 C0 4 0 4 -3.5625 4.0625 C-4.696875 4.041875 -5.83125 4.02125 -7 4 C-7 3.01 -7 2.02 -7 1 C-4.69 1.33 -2.38 1.66 0 2 C0 1.34 0 0.68 0 0 Z " fill="#B5C1D0" transform="translate(392,27)"/>
<path d="M0 0 C0.33 0.99 0.66 1.98 1 3 C0 4 0 4 -3.5625 4.0625 C-4.696875 4.041875 -5.83125 4.02125 -7 4 C-7 3.01 -7 2.02 -7 1 C-4.69 1.33 -2.38 1.66 0 2 C0 1.34 0 0.68 0 0 Z " fill="#B5C1D0" transform="translate(327,27)"/>
<path d="M0 0 C0.33 0 0.66 0 1 0 C1 2.64 1 5.28 1 8 C1.99 8 2.98 8 4 8 C4 8.66 4 9.32 4 10 C2.35 10 0.7 10 -1 10 C-0.67 6.7 -0.34 3.4 0 0 Z " fill="#B3B5C1" transform="translate(256,21)"/>
<path d="M0 0 C0 0.99 0 1.98 0 3 C-2.64 3 -5.28 3 -8 3 C-8 2.34 -8 1.68 -8 1 C-5.23735711 0.40267181 -2.83967231 0 0 0 Z " fill="#ABB5C4" transform="translate(237,28)"/>
<path d="M0 0 C0 0.99 0 1.98 0 3 C-2.64 3 -5.28 3 -8 3 C-8 2.34 -8 1.68 -8 1 C-5.23735711 0.40267181 -2.83967231 0 0 0 Z " fill="#ACB5C5" transform="translate(130,28)"/>
<path d="M0 0 C0 0.99 0 1.98 0 3 C-2.64 3 -5.28 3 -8 3 C-8 2.34 -8 1.68 -8 1 C-5.23735711 0.40267181 -2.83967231 0 0 0 Z " fill="#ACB6C4" transform="translate(103,28)"/>
<path d="M0 0 C0.66 0 1.32 0 2 0 C1.4140625 6.15234375 1.4140625 6.15234375 1 8 C0.01 8.495 0.01 8.495 -1 9 C-1.125 2.25 -1.125 2.25 0 0 Z " fill="#B5C0CC" transform="translate(500,19)"/>
<path d="M0 0 C1.32 0 2.64 0 4 0 C3.34 2.64 2.68 5.28 2 8 C0.23537317 4.91190305 0 3.76687864 0 0 Z " fill="#AAB6C2" transform="translate(47,15)"/>
<path d="M0 0 C1.98 0 3.96 0 6 0 C6 0.66 6 1.32 6 2 C4.68 2 3.36 2 2 2 C1.67 2.99 1.34 3.98 1 5 C0.34 5 -0.32 5 -1 5 C-0.67 3.35 -0.34 1.7 0 0 Z " fill="#A9B8CB" transform="translate(187,14)"/>
<path d="M0 0 C1.23556641 0.01740234 1.23556641 0.01740234 2.49609375 0.03515625 C3.32238281 0.04417969 4.14867187 0.05320312 5 0.0625 C5.63808594 0.07410156 6.27617187 0.08570312 6.93359375 0.09765625 C6.60359375 0.75765625 6.27359375 1.41765625 5.93359375 2.09765625 C3.62359375 2.09765625 1.31359375 2.09765625 -1.06640625 2.09765625 C-1.39640625 3.08765625 -1.72640625 4.07765625 -2.06640625 5.09765625 C-2.62890625 3.16015625 -2.62890625 3.16015625 -3.06640625 1.09765625 C-2.06640625 0.09765625 -2.06640625 0.09765625 0 0 Z " fill="#B6BBC9" transform="translate(472.06640625,18.90234375)"/>
<path d="M0 0 C0.99 0.33 1.98 0.66 3 1 C2.01 2.485 2.01 2.485 1 4 C1 5.32 1 6.64 1 8 C0.34 8 -0.32 8 -1 8 C-1 6.68 -1 5.36 -1 4 C-1.66 3.67 -2.32 3.34 -3 3 C-2.01 2.01 -1.02 1.02 0 0 Z " fill="#ABB2C0" transform="translate(443,19)"/>
<path d="M0 0 C1.98 0 3.96 0 6 0 C6.33 1.32 6.66 2.64 7 4 C4.69 3.67 2.38 3.34 0 3 C0 2.01 0 1.02 0 0 Z " fill="#B8C3D2" transform="translate(112,48)"/>
<path d="M0 0 C3.125 6.25 3.125 6.25 2 10 C1.34 10 0.68 10 0 10 C0 6.7 0 3.4 0 0 Z " fill="#4770A4" transform="translate(336,21)"/>
<path d="M0 0 C0.66 0 1.32 0 2 0 C2.33 1.65 2.66 3.3 3 5 C1.02 5 -0.96 5 -3 5 C-3.33 4.34 -3.66 3.68 -4 3 C-2.35 3 -0.7 3 1 3 C0.67 2.01 0.34 1.02 0 0 Z " fill="#BDC7D4" transform="translate(511,21)"/>
<path d="M0 0 C2.475 0.495 2.475 0.495 5 1 C5 2.65 5 4.3 5 6 C4.01 5.67 3.02 5.34 2 5 C0.8125 2.4375 0.8125 2.4375 0 0 Z " fill="#AFB7C4" transform="translate(389,24)"/>
</svg>
