<?xml version="1.0" encoding="UTF-8"?>
<svg version="1.1" xmlns="http://www.w3.org/2000/svg" width="102" height="70">
<path d="M0 0 C33.66 0 67.32 0 102 0 C102 23.1 102 46.2 102 70 C68.34 70 34.68 70 0 70 C0 46.9 0 23.8 0 0 Z " fill="#F4F3F5" transform="translate(0,0)"/>
<path d="M0 0 C-0.12266124 5.88773956 -1.88020698 8.81621727 -5.8984375 13.07421875 C-11.09933637 17.8400982 -17.6875241 23 -25 23 C-25.2475 23.5775 -25.495 24.155 -25.75 24.75 C-27.16305697 27.29350255 -28.95298918 28.95298918 -31 31 C-31 31.66 -31 32.32 -31 33 C-26.35779313 33.71418567 -24.0279625 32.58625331 -20.3125 30 C-19.56613281 29.443125 -18.81976563 28.88625 -18.05078125 28.3125 C-16 27 -16 27 -13 27 C-13.57584432 29.38564077 -14.22227595 31.66682784 -15 34 C-11.96643938 33.20431197 -9.65651037 32.58430438 -7 31 C-5.59885502 27.71608175 -5.59885502 27.71608175 -4.97265625 25.33203125 C-2.55904001 19.54516821 2.84843184 14.43437877 8 11 C11.1875 10.875 11.1875 10.875 14 11 C14.75 12.625 14.75 12.625 15 15 C13.3125 17.9375 13.3125 17.9375 11 21 C10.13375 22.2375 10.13375 22.2375 9.25 23.5 C6.64004849 26.39994612 3.78402462 28.51788038 0.609375 30.765625 C0.07828125 31.17296875 -0.4528125 31.5803125 -1 32 C-1 32.33 -1 32.66 -1 33 C2.63 32.67 6.26 32.34 10 32 C10.0825 31.13375 10.165 30.2675 10.25 29.375 C11.69858315 22.85637581 15.62814718 18.65285992 21 15 C24.375 14.6875 24.375 14.6875 27 15 C26.74009591 21.36765032 24.66294578 24.6948822 20 29 C18.36622358 30.05287814 16.70818403 31.0727001 15 32 C14.505 32.99 14.505 32.99 14 34 C19.98117708 32.30265415 19.98117708 32.30265415 25.3125 29.25 C27 28 27 28 29.25 28.3125 C29.8275 28.539375 30.405 28.76625 31 29 C30.34 30.65 29.68 32.3 29 34 C29.67546875 33.566875 30.3509375 33.13375 31.046875 32.6875 C31.93890625 32.130625 32.8309375 31.57375 33.75 31 C34.63171875 30.443125 35.5134375 29.88625 36.421875 29.3125 C39 28 39 28 43 28 C41.40550722 31.9815697 38.75571743 34.37714178 35.6875 37.3125 C31.60962349 41.27350528 28.08366451 45.21500334 25 50 C23.515 49.505 23.515 49.505 22 49 C23.77027754 44.39727838 25.18699218 41.2870757 29 38 C27.02 37.505 27.02 37.505 25 37 C25 36.34 25 35.68 25 35 C24.01 35.495 24.01 35.495 23 36 C17.91676719 37.69441094 13.170718 37.34055652 8 36 C7.01 36.33 6.02 36.66 5 37 C0.39297043 37.14861386 -3.48858825 36.90228235 -8 36 C-8.99 36.33 -9.98 36.66 -11 37 C-14.90748662 37.14209042 -18.23361402 36.97647044 -22 36 C-22.99 36.495 -22.99 36.495 -24 37 C-28.81222441 37.32144525 -33.28707244 36.99971191 -38 36 C-38.99 36.495 -38.99 36.495 -40 37 C-41.64255791 37.12114921 -43.29052478 37.17540767 -44.9375 37.1875 C-46.25041016 37.20876953 -46.25041016 37.20876953 -47.58984375 37.23046875 C-50 37 -50 37 -53 35 C-53.4375 32.5625 -53.4375 32.5625 -53 30 C-51.21077735 27.83802263 -49.84201178 27.10842808 -47.05859375 26.75 C-43.19417091 26.63613119 -41.26017435 26.82655043 -38 29 C-35.97922654 29.05901922 -35.97922654 29.05901922 -34 28 C-31.75149517 25.52338502 -31.75149517 25.52338502 -30 23 C-31.19625 23.103125 -32.3925 23.20625 -33.625 23.3125 C-36.91648151 23.30664327 -38.8522484 22.85764654 -41.5 20.875 C-44 18 -44 18 -44.5625 15 C-43.78588546 10.85805579 -42.28034407 8.32958807 -39.375 5.3125 C-35.79952206 3.33657798 -31.99340681 2.72529824 -28 2 C-27.67 2.99 -27.34 3.98 -27 5 C-28.85625 5.61875 -28.85625 5.61875 -30.75 6.25 C-34.29272486 7.60290559 -36.8531562 8.73306379 -39 12 C-39.01370127 15.17037671 -39.01370127 15.17037671 -38 18 C-34.20578288 19.89710856 -31.0766928 20.35285806 -27 19 C-23.33990152 15.47811502 -20.34672465 11.57448837 -17.25732422 7.55566406 C-12.05236016 1.11565804 -8.15779976 -1.35963329 0 0 Z " fill="#ED2D34" transform="translate(55,11)"/>
<path d="M0 0 C-0.25990409 6.36765032 -2.33705422 9.6948822 -7 14 C-8.63377642 15.05287814 -10.29181597 16.0727001 -12 17 C-12.33 17.66 -12.66 18.32 -13 19 C-7.01882292 17.30265415 -7.01882292 17.30265415 -1.6875 14.25 C0 13 0 13 2.25 13.3125 C2.8275 13.539375 3.405 13.76625 4 14 C3.34 15.65 2.68 17.3 2 19 C2.67546875 18.566875 3.3509375 18.13375 4.046875 17.6875 C4.93890625 17.130625 5.8309375 16.57375 6.75 16 C8.07257813 15.1646875 8.07257813 15.1646875 9.421875 14.3125 C12 13 12 13 16 13 C14.40550722 16.9815697 11.75571743 19.37714178 8.6875 22.3125 C4.60962349 26.27350528 1.08366451 30.21500334 -2 35 C-3.485 34.505 -3.485 34.505 -5 34 C-3.22972246 29.39727838 -1.81300782 26.2870757 2 23 C0.68 22.67 -0.64 22.34 -2 22 C-2 21.34 -2 20.68 -2 20 C-2.66 20.33 -3.32 20.66 -4 21 C-8.92962247 22.64320749 -14.01351641 22.6027983 -19 21 C-19.7425 20.814375 -20.485 20.62875 -21.25 20.4375 C-21.8275 20.293125 -22.405 20.14875 -23 20 C-22.2575 19.71125 -21.515 19.4225 -20.75 19.125 C-17.69629728 16.76532063 -17.38555932 15.78508086 -16.1875 12.25 C-13.58247623 5.05718134 -8.34496916 -1.4603696 0 0 Z " fill="#ED363C" transform="translate(82,26)"/>
<path d="M0 0 C-0.12255447 5.88261468 -1.87727749 8.80793137 -5.88671875 13.06640625 C-14.55757576 21 -14.55757576 21 -19 21 C-17.83019211 16.02831647 -14.99662811 14.39040109 -11.04296875 11.625 C-7.95131311 9.16586282 -6.12027902 6.31293596 -4 3 C-11.4726816 6.58065993 -16.43261019 12.14891529 -21 19 C-21.33 18.34 -21.66 17.68 -22 17 C-22.99 17.99 -23.98 18.98 -25 20 C-25.66 19.67 -26.32 19.34 -27 19 C-10.03828584 -1.67304764 -10.03828584 -1.67304764 0 0 Z " fill="#ED3339" transform="translate(55,11)"/>
<path d="M0 0 C0.66 0.33 1.32 0.66 2 1 C1.01 2.485 1.01 2.485 0 4 C2.475 4.495 2.475 4.495 5 5 C5 6.32 5 7.64 5 9 C3.68 9 2.36 9 1 9 C0.67 10.32 0.34 11.64 0 13 C-0.33 12.01 -0.66 11.02 -1 10 C-2.051875 10.598125 -3.10375 11.19625 -4.1875 11.8125 C-5.15042969 12.35583984 -5.15042969 12.35583984 -6.1328125 12.91015625 C-7.64760151 13.79431134 -9.11409216 14.76084343 -10.5625 15.75 C-13.53950759 17.27667056 -15.69955905 17.23026332 -19 17 C-19 12.23782012 -18.16611139 11.14922722 -15.12890625 7.74609375 C-11.6558533 4.89755307 -7.69009101 3.49742618 -3.51171875 1.9453125 C-1.09568324 1.23325559 -1.09568324 1.23325559 0 0 Z " fill="#F3D7D9" transform="translate(43,28)"/>
<path d="M0 0 C0.99 0.33 1.98 0.66 3 1 C1.40550722 4.9815697 -1.24428257 7.37714178 -4.3125 10.3125 C-8.39037651 14.27350528 -11.91633549 18.21500334 -15 23 C-15.99 22.67 -16.98 22.34 -18 22 C-16.22972246 17.39727838 -14.81300782 14.2870757 -11 11 C-12.32 10.67 -13.64 10.34 -15 10 C-15 9.34 -15 8.68 -15 8 C-16.32 8.33 -17.64 8.66 -19 9 C-19 8.34 -19 7.68 -19 7 C-19.66 6.67 -20.32 6.34 -21 6 C-19.76055724 5.13058506 -18.50792941 4.27994543 -17.25 3.4375 C-16.55390625 2.96183594 -15.8578125 2.48617187 -15.140625 1.99609375 C-13 1 -13 1 -10.734375 1.34765625 C-10.16203125 1.56292969 -9.5896875 1.77820312 -9 2 C-9.66 3.65 -10.32 5.3 -11 7 C-9.35310365 6.02262231 -7.70751146 5.0430468 -6.0625 4.0625 C-5.14597656 3.51722656 -4.22945312 2.97195312 -3.28515625 2.41015625 C-1.11587323 1.19267827 -1.11587323 1.19267827 0 0 Z " fill="#ED343A" transform="translate(95,38)"/>
<path d="M0 0 C0 0.66 0 1.32 0 2 C-1.2375 2.4125 -2.475 2.825 -3.75 3.25 C-7.29272486 4.60290559 -9.8531562 5.73306379 -12 9 C-11.85650653 12.19954954 -11.85650653 12.19954954 -11 15 C-7.7 15.66 -4.4 16.32 -1 17 C-1 17.33 -1 17.66 -1 18 C-2.65 18 -4.3 18 -6 18 C-6 18.66 -6 19.32 -6 20 C-9.73353364 19.7128051 -12.32404139 19.46797134 -15.4375 17.3125 C-17.49708471 14.26431463 -17.51708428 12.61958997 -17 9 C-14.70356341 4.06266134 -11.96348916 1.81812048 -7 -0.25 C-4.07432889 -0.98141778 -2.76129767 -1.06203756 0 0 Z " fill="#ED3138" transform="translate(28,14)"/>
<path d="M0 0 C1.125 3.75 1.125 3.75 0 6 C-0.845625 6.185625 -1.69125 6.37125 -2.5625 6.5625 C-7.0804963 8.45184391 -9.21595727 11.35449014 -12.265625 15.1015625 C-12.83796875 15.72804688 -13.4103125 16.35453125 -14 17 C-14.66 17 -15.32 17 -16 17 C-15.34 14.69 -14.68 12.38 -14 10 C-14.66 9.67 -15.32 9.34 -16 9 C-14.89902432 7.87187697 -13.79408444 6.74762189 -12.6875 5.625 C-12.07261719 4.99851562 -11.45773438 4.37203125 -10.82421875 3.7265625 C-7.14357886 0.24295901 -4.95178925 -0.22007952 0 0 Z " fill="#EE383F" transform="translate(69,22)"/>
<path d="M0 0 C0.33 0 0.66 0 1 0 C1.21136066 4.43857388 1.00680712 7.98638576 -1 12 C-4.70752861 13.81256954 -7.90540819 14.24085834 -12 14 C-12 13.01 -12 12.02 -12 11 C-10.390625 9.5703125 -10.390625 9.5703125 -8.25 8.125 C-4.88033295 5.73939501 -2.46194135 3.34824024 0 0 Z " fill="#F4E4E6" transform="translate(66,31)"/>
<path d="M0 0 C-1.3486119 4.13237764 -3.04381405 6.34731405 -6.3125 9.1875 C-7.07175781 9.86167969 -7.83101562 10.53585938 -8.61328125 11.23046875 C-11.01097787 13.00813907 -13.18993239 14.03015366 -16 15 C-14.58884686 11.87729974 -12.889376 9.50346319 -10.625 6.9375 C-10.03976563 6.26589844 -9.45453125 5.59429687 -8.8515625 4.90234375 C-4.08008214 0 -4.08008214 0 0 0 Z " fill="#F4DFE2" transform="translate(51,14)"/>
<path d="M0 0 C0 0.33 0 0.66 0 1 C-1.98 1.33 -3.96 1.66 -6 2 C-2.535 3.485 -2.535 3.485 1 5 C-1 7 -1 7 -2.9453125 7.1953125 C-4.96354167 7.13020833 -6.98177083 7.06510417 -9 7 C-9 7.66 -9 8.32 -9 9 C-9.99 8.67 -10.98 8.34 -12 8 C-12.25 5.6875 -12.25 5.6875 -12 3 C-8.70976944 -0.97569526 -4.75485572 -0.23774279 0 0 Z " fill="#EF5E64" transform="translate(14,38)"/>
<path d="M0 0 C0.71068348 6.04080956 0.71068348 6.04080956 -1.1953125 8.61328125 C-2.75 10 -2.75 10 -6 12 C-8.375 11.8125 -8.375 11.8125 -10 11 C-8.73396788 6.69549079 -5.08358566 0 0 0 Z " fill="#EE3D43" transform="translate(79,29)"/>
<path d="M0 0 C0.78375 0.04125 1.5675 0.0825 2.375 0.125 C2.375 2.125 2.375 2.125 0.875 3.75 C0.38 4.20375 -0.115 4.6575 -0.625 5.125 C1.685 5.125 3.995 5.125 6.375 5.125 C6.045 6.115 5.715 7.105 5.375 8.125 C-3.07570423 8.26584507 -3.07570423 8.26584507 -6.625 7.125 C-7.3675 6.939375 -8.11 6.75375 -8.875 6.5625 C-9.4525 6.418125 -10.03 6.27375 -10.625 6.125 C-9.67625 5.50625 -8.7275 4.8875 -7.75 4.25 C-1.61295181 0.07680723 -1.61295181 0.07680723 0 0 Z " fill="#ED2229" transform="translate(69.625,39.875)"/>
<path d="M0 0 C0 0.66 0 1.32 0 2 C-1.216875 2.4125 -2.43375 2.825 -3.6875 3.25 C-7.39121906 4.61762771 -9.95392221 6.47610698 -13 9 C-13.99 9 -14.98 9 -16 9 C-14.72585279 5.07137943 -13.5908659 3.09467178 -10 1 C-6.2919135 -0.54503604 -3.83620117 -1.47546199 0 0 Z " fill="#EE3E45" transform="translate(28,14)"/>
<path d="M0 0 C-1.50982731 3.42856619 -3.51713969 5.95678216 -6 8.75 C-7.051875 9.94882812 -7.051875 9.94882812 -8.125 11.171875 C-10 13 -10 13 -12 13 C-10.66182195 9.02031425 -8.99662286 6.61251238 -6 3.6875 C-5.29875 2.99011719 -4.5975 2.29273438 -3.875 1.57421875 C-2 0 -2 0 0 0 Z " fill="#F2BABD" transform="translate(65,26)"/>
<path d="M0 0 C0 3 0 3 -1.4375 4.5 C-1.953125 4.995 -2.46875 5.49 -3 6 C-3.33 6.99 -3.66 7.98 -4 9 C-7.0625 10.1875 -7.0625 10.1875 -10 11 C-8.67367286 5.36310966 -4.53368235 3.06814317 0 0 Z " fill="#ED3A40" transform="translate(46,21)"/>
<path d="M0 0 C-0.33 0.99 -0.66 1.98 -1 3 C-1.556875 3.268125 -2.11375 3.53625 -2.6875 3.8125 C-5.60738913 5.31190253 -7.42183167 7.36353792 -9.6328125 9.7578125 C-11 11 -11 11 -13 11 C-11.56590028 7.64138305 -9.80630679 5.64125061 -7.0625 3.25 C-6.37285156 2.63640625 -5.68320312 2.0228125 -4.97265625 1.390625 C-3 0 -3 0 0 0 Z " fill="#F3CBCE" transform="translate(51,14)"/>
<path d="M0 0 C0.66 0 1.32 0 2 0 C0.59155282 3.21524305 -1.10344786 5.32183868 -3.625 7.75 C-4.57246094 8.67039062 -4.57246094 8.67039062 -5.5390625 9.609375 C-6.02117187 10.06828125 -6.50328125 10.5271875 -7 11 C-7.33 10.34 -7.66 9.68 -8 9 C-6.85459775 7.68712379 -5.70866567 6.37470979 -4.5625 5.0625 C-3.92441406 4.33160156 -3.28632812 3.60070313 -2.62890625 2.84765625 C-1.77458541 1.87860647 -0.91348825 0.91348825 0 0 Z " fill="#F3CDCF" transform="translate(77,29)"/>
<path d="M0 0 C0 3.91400264 -1.53966787 5.0783556 -4 8 C-4 8.33 -4 8.66 -4 9 C-5.65 9 -7.3 9 -9 9 C-7.83709195 5.51127585 -6.86032391 4.90023136 -3.9375 2.8125 C-3.20402344 2.28269531 -2.47054687 1.75289062 -1.71484375 1.20703125 C-1.14894531 0.80871094 -0.58304688 0.41039062 0 0 Z " fill="#F3D0D3" transform="translate(78,36)"/>
<path d="M0 0 C1.32 0 2.64 0 4 0 C3.74438677 2.3431213 3.40729228 4.67843403 3 7 C2.01 7.495 2.01 7.495 1 8 C1 6.35 1 4.7 1 3 C0.01 2.67 -0.98 2.34 -2 2 C-1.34 1.34 -0.68 0.68 0 0 Z " fill="#ED2128" transform="translate(78,26)"/>
<path d="M0 0 C0.33 0.99 0.66 1.98 1 3 C-1.64 5.31 -4.28 7.62 -7 10 C-7 6.04435836 -5.59478606 4.89133304 -3 2 C-2.01 1.34 -1.02 0.68 0 0 Z " fill="#ED262D" transform="translate(50,19)"/>
<path d="M0 0 C2.64 0 5.28 0 8 0 C8.33 0.66 8.66 1.32 9 2 C6.04335481 3.4783226 3.25770263 3.06032783 0 3 C0 2.01 0 1.02 0 0 Z " fill="#F3DBDE" transform="translate(6,42)"/>
<path d="M0 0 C0 0.66 0 1.32 0 2 C-2.64 2.66 -5.28 3.32 -8 4 C-8 3.01 -8 2.02 -8 1 C-4.93251126 -0.86240388 -3.40254489 -1.2151946 0 0 Z " fill="#ED3339" transform="translate(28,14)"/>
<path d="M0 0 C-1.98 0.99 -1.98 0.99 -4 2 C-3.34 2.66 -2.68 3.32 -2 4 C-3.98 4.99 -5.96 5.98 -8 7 C-7.625 4.0625 -7.625 4.0625 -7 1 C-4.53721199 -0.231394 -2.7204945 -0.07159196 0 0 Z " fill="#EE4147" transform="translate(53,10)"/>
<path d="M0 0 C1.32 0 2.64 0 4 0 C3.34 1.65 2.68 3.3 2 5 C-1 5 -1 5 -3 4 C-1.75 2 -1.75 2 0 0 Z " fill="#ED363D" transform="translate(50,16)"/>
<path d="M0 0 C-1.15173355 2.46800047 -2.04783565 4.04783565 -4 6 C-4.99 5.67 -5.98 5.34 -7 5 C-2.25 0 -2.25 0 0 0 Z " fill="#F4E7E9" transform="translate(65,26)"/>
</svg>
