<?xml version="1.0" encoding="UTF-8"?>
<svg version="1.1" xmlns="http://www.w3.org/2000/svg" width="113" height="42">
<path d="M0 0 C37.29 0 74.58 0 113 0 C113 13.86 113 27.72 113 42 C75.71 42 38.42 42 0 42 C0 28.14 0 14.28 0 0 Z " fill="#F3F4F5" transform="translate(0,0)"/>
<path d="M0 0 C0 0.66 0 1.32 0 2 C-1.7015625 2.2165625 -1.7015625 2.2165625 -3.4375 2.4375 C-6.80777201 2.61171478 -6.80777201 2.61171478 -8 4 C-8.07148199 5.35243917 -8.08399454 6.70834367 -8.0625 8.0625 C-8.041875 9.361875 -8.02125 10.66125 -8 12 C-6.02 12.66 -4.04 13.32 -2 14 C-2 12.68 -2 11.36 -2 10 C-2.66 10 -3.32 10 -4 10 C-4 9.34 -4 8.68 -4 8 C-2.02 8 -0.04 8 2 8 C2 6.68 2 5.36 2 4 C4.08268593 3.91873913 6.16628658 3.86069161 8.25 3.8125 C9.99023438 3.76029297 9.99023438 3.76029297 11.765625 3.70703125 C15.22268407 4.02017066 16.51565563 4.65709108 19 7 C19.33 6.34 19.66 5.68 20 5 C21.32 5 22.64 5 24 5 C24 7.64 24 10.28 24 13 C24.99 13 25.98 13 27 13 C27 10.36 27 7.72 27 5 C29.12472576 4.94613371 31.24983652 4.90726929 33.375 4.875 C34.55835938 4.85179687 35.74171875 4.82859375 36.9609375 4.8046875 C40 5 40 5 42 7 C42.34490322 11.05261287 42.30163882 12.54754176 40 16 C36.875 16.1875 36.875 16.1875 34 16 C34 17.65 34 19.3 34 21 C31 20 31 20 29.75 18.5625 C27.18142068 16.2691256 24.28724877 15.88051306 21 15 C20.01 14.34 19.02 13.68 18 13 C17.67 13.99 17.34 14.98 17 16 C14.8125 16.75 14.8125 16.75 12 17 C9.07689096 15.206274 7.36669731 14.01546949 6.1875 10.75 C6.125625 10.1725 6.06375 9.595 6 9 C5.67 11.31 5.34 13.62 5 16 C2.73078464 16.13489391 0.4592933 16.23193995 -1.8125 16.3125 C-3.70935547 16.39951172 -3.70935547 16.39951172 -5.64453125 16.48828125 C-9 16 -9 16 -10.921875 13.703125 C-12.31865767 10.20104671 -12.47580392 7.7384594 -12 4 C-8.92690336 -0.99378204 -5.33129622 -0.35541975 0 0 Z " fill="#BED887" transform="translate(44,15)"/>
<path d="M0 0 C0.886875 0.12375 1.77375 0.2475 2.6875 0.375 C2.6875 3.77323327 1.85964941 6.20330159 0.6875 9.375 C-0.3125 10.375 -0.3125 10.375 -3.6875 10.5 C-7.3125 10.375 -7.3125 10.375 -10.3125 9.375 C-10.05146484 10.18710937 -10.05146484 10.18710937 -9.78515625 11.015625 C-9.21483495 13.86251809 -9.44112699 16.24218522 -9.75 19.125 C-9.85183594 20.10984375 -9.95367188 21.0946875 -10.05859375 22.109375 C-10.14238281 22.85703125 -10.22617187 23.6046875 -10.3125 24.375 C-10.9725 24.375 -11.6325 24.375 -12.3125 24.375 C-12.3125 21.075 -12.3125 17.775 -12.3125 14.375 C-12.9725 14.375 -13.6325 14.375 -14.3125 14.375 C-14.3125 17.675 -14.3125 20.975 -14.3125 24.375 C-15.3025 24.375 -16.2925 24.375 -17.3125 24.375 C-17.3125 19.095 -17.3125 13.815 -17.3125 8.375 C-15.3325 8.045 -13.3525 7.715 -11.3125 7.375 C-8.02333425 6.59334965 -8.02333425 6.59334965 -6 3.3125 C-3.3125 0.375 -3.3125 0.375 0 0 Z " fill="#A3C854" transform="translate(28.3125,6.625)"/>
<path d="M0 0 C0 0.66 0 1.32 0 2 C-1.7015625 2.2165625 -1.7015625 2.2165625 -3.4375 2.4375 C-6.80777201 2.61171478 -6.80777201 2.61171478 -8 4 C-8.07148199 5.35243917 -8.08399454 6.70834367 -8.0625 8.0625 C-8.041875 9.361875 -8.02125 10.66125 -8 12 C-6.02 12.66 -4.04 13.32 -2 14 C-2 12.68 -2 11.36 -2 10 C-2.66 10 -3.32 10 -4 10 C-4 9.34 -4 8.68 -4 8 C-2.35 8 -0.7 8 1 8 C1.04241723 10.33294775 1.04092937 12.66702567 1 15 C-0.5788684 16.5788684 -2.19292337 16.28319742 -4.375 16.375 C-8.68669355 16.31330645 -8.68669355 16.31330645 -11.0625 13.9375 C-12.20867955 10.34613743 -12.47707531 7.74844884 -12 4 C-8.92690336 -0.99378204 -5.33129622 -0.35541975 0 0 Z " fill="#BAD67F" transform="translate(44,15)"/>
<path d="M0 0 C0.66 0 1.32 0 2 0 C2 2.64 2 5.28 2 8 C2.99 8 3.98 8 5 8 C5 5.36 5 2.72 5 0 C6.65 0 8.3 0 10 0 C10 4.95 10 9.9 10 15 C1.125 9.125 1.125 9.125 0 8 C-0.14115161 5.32941149 -0.04247107 2.67567762 0 0 Z " fill="#CEE1A7" transform="translate(66,20)"/>
<path d="M0 0 C2.4375 0.8125 2.4375 0.8125 4.4375 2.8125 C4.4375 4.1325 4.4375 5.4525 4.4375 6.8125 C1.7975 6.8125 -0.8425 6.8125 -3.5625 6.8125 C-3.2325 7.4725 -2.9025 8.1325 -2.5625 8.8125 C0.46684491 9.47022428 0.46684491 9.47022428 3.4375 9.8125 C3.4375 10.4725 3.4375 11.1325 3.4375 11.8125 C0.0625 11.9375 0.0625 11.9375 -3.5625 11.8125 C-5.5625 9.8125 -5.5625 9.8125 -5.875 6.375 C-5.5625 2.8125 -5.5625 2.8125 -4.375 0.8125 C-2.5625 -0.1875 -2.5625 -0.1875 0 0 Z " fill="#80756F" transform="translate(26.5625,19.1875)"/>
<path d="M0 0 C1 2 1 2 0.1875 5 C-1 8 -1 8 -3 10 C-4.65204456 10.70211894 -6.31923769 11.36971413 -8 12 C-8.99 12.495 -8.99 12.495 -10 13 C-10.66 12.67 -11.32 12.34 -12 12 C-12 15.3 -12 18.6 -12 22 C-12.33 22 -12.66 22 -13 22 C-13 17.05 -13 12.1 -13 7 C-9.7 7 -6.4 7 -3 7 C-2.690625 6.030625 -2.38125 5.06125 -2.0625 4.0625 C-1 1 -1 1 0 0 Z " fill="#D6DBCA" transform="translate(31,9)"/>
<path d="M0 0 C1.65 0 3.3 0 5 0 C5 1.98 5 3.96 5 6 C4.34 6 3.68 6 3 6 C3 9.3 3 12.6 3 16 C2.01 16 1.02 16 0 16 C0 10.72 0 5.44 0 0 Z " fill="#AAA3A1" transform="translate(11,15)"/>
<path d="M0 0 C-0.99 1.485 -0.99 1.485 -2 3 C-5.125 3.1875 -5.125 3.1875 -8 3 C-7.73896484 3.81210937 -7.73896484 3.81210937 -7.47265625 4.640625 C-6.90233495 7.48751809 -7.12862699 9.86718522 -7.4375 12.75 C-7.59025391 14.22726563 -7.59025391 14.22726563 -7.74609375 15.734375 C-7.82988281 16.48203125 -7.91367187 17.2296875 -8 18 C-8.66 18 -9.32 18 -10 18 C-10.22354607 16.10590022 -10.42819951 14.2095652 -10.625 12.3125 C-10.74101562 11.25675781 -10.85703125 10.20101563 -10.9765625 9.11328125 C-11.001438 5.80898561 -10.58789289 3.8828735 -9 1 C-5.37169613 -0.69835501 -3.84489875 -1.28163292 0 0 Z " fill="#86816B" transform="translate(26,13)"/>
<path d="M0 0 C1.32 0 2.64 0 4 0 C4 0.66 4 1.32 4 2 C3.01 2 2.02 2 1 2 C1.75150023 5.27773504 1.75150023 5.27773504 5 7 C4.67 8.65 4.34 10.3 4 12 C2.35 12.33 0.7 12.66 -1 13 C-1.33 12.01 -1.66 11.02 -2 10 C-0.35 10 1.3 10 3 10 C2.34 9.443125 1.68 8.88625 1 8.3125 C-1 6 -1 6 -1.3125 3.3125 C-1 1 -1 1 0 0 Z " fill="#BBD680" transform="translate(89,19)"/>
<path d="M0 0 C2.97 0.33 5.94 0.66 9 1 C9.103125 1.78375 9.20625 2.5675 9.3125 3.375 C9.77595022 6.33045181 9.77595022 6.33045181 13 8 C13 8.66 13 9.32 13 10 C11.35 10 9.7 10 8 10 C8 10.66 8 11.32 8 12 C7.01 11.67 6.02 11.34 5 11 C5.33 10.34 5.66 9.68 6 9 C6.039992 7.00039988 6.04346799 4.99952758 6 3 C4.02 2.34 2.04 1.68 0 1 C0 0.67 0 0.34 0 0 Z " fill="#DFEACB" transform="translate(79,19)"/>
<path d="M0 0 C0 1.98 0 3.96 0 6 C-1.65614657 6.38218767 -3.32457024 6.71395102 -5 7 C-6 6 -6 6 -6.0625 2.9375 C-6.041875 1.968125 -6.02125 0.99875 -6 0 C-3.50907189 -1.24546405 -2.58919267 -0.7767578 0 0 Z " fill="#EDF1E7" transform="translate(84,22)"/>
<path d="M0 0 C0.66 0 1.32 0 2 0 C2 4.29 2 8.58 2 13 C3.98 13 5.96 13 8 13 C8 13.66 8 14.32 8 15 C5.36 15 2.72 15 0 15 C0 10.05 0 5.1 0 0 Z " fill="#847973" transform="translate(1,16)"/>
<path d="M0 0 C3.69230769 0.69230769 3.69230769 0.69230769 5 2 C5.04063832 3.66617115 5.042721 5.33388095 5 7 C1.25 8.125 1.25 8.125 -1 7 C-1.04254356 5.00045254 -1.04080783 2.99958364 -1 1 C-0.67 0.67 -0.34 0.34 0 0 Z " fill="#EDF1E8" transform="translate(56,21)"/>
<path d="M0 0 C0 0.66 0 1.32 0 2 C-1.7015625 2.2165625 -1.7015625 2.2165625 -3.4375 2.4375 C-6.80777201 2.61171478 -6.80777201 2.61171478 -8 4 C-8.36760731 6.32817964 -8.70241581 8.6618385 -9 11 C-9.99 11 -10.98 11 -12 11 C-12.47863248 4.77777778 -12.47863248 4.77777778 -10.5 1.5625 C-6.86353539 -0.71029038 -4.24217465 -0.28281164 0 0 Z " fill="#BBD681" transform="translate(44,15)"/>
<path d="M0 0 C2.5 0.3125 2.5 0.3125 5 1 C5.33 1.66 5.66 2.32 6 3 C5.67 3.66 5.34 4.32 5 5 C2.36 5 -0.28 5 -3 5 C-1.125 1.125 -1.125 1.125 0 0 Z " fill="#ADA7A4" transform="translate(24,19)"/>
<path d="M0 0 C1.65 0.33 3.3 0.66 5 1 C4.67 2.98 4.34 4.96 4 7 C3.01 7 2.02 7 1 7 C1.33 6.01 1.66 5.02 2 4 C0.35 4.33 -1.3 4.66 -3 5 C-2.01 3.35 -1.02 1.7 0 0 Z " fill="#9CC049" transform="translate(23,9)"/>
<path d="M0 0 C0.625 1.8125 0.625 1.8125 1 4 C0.01 5.485 0.01 5.485 -1 7 C-4.125 7.1875 -4.125 7.1875 -7 7 C-7 8.65 -7 10.3 -7 12 C-7.66 11.67 -8.32 11.34 -9 11 C-8.34 8.69 -7.68 6.38 -7 4 C-5.35 4 -3.7 4 -2 4 C-1.34 2.68 -0.68 1.36 0 0 Z " fill="#B9D57D" transform="translate(85,24)"/>
<path d="M0 0 C1.98 0 3.96 0 6 0 C5.525625 0.350625 5.05125 0.70125 4.5625 1.0625 C2.32126175 3.84163543 2.32882342 6.5144717 2 10 C1.34 10 0.68 10 0 10 C0 6.7 0 3.4 0 0 Z " fill="#B6D476" transform="translate(46,20)"/>
<path d="M0 0 C0.33 0 0.66 0 1 0 C1 1.65 1 3.3 1 5 C2.32 5.33 3.64 5.66 5 6 C5 6.99 5 7.98 5 9 C3.35 8.67 1.7 8.34 0 8 C-1.09658936 4.71023192 -0.79953138 3.28696233 0 0 Z " fill="#C2DA90" transform="translate(54,23)"/>
<path d="M0 0 C0.66 0 1.32 0 2 0 C2.33 0.66 2.66 1.32 3 2 C6.02934491 2.65772428 6.02934491 2.65772428 9 3 C9 3.66 9 4.32 9 5 C5.625 5.125 5.625 5.125 2 5 C1.34 4.34 0.68 3.68 0 3 C0 2.01 0 1.02 0 0 Z " fill="#928884" transform="translate(21,26)"/>
<path d="M0 0 C0.33 0 0.66 0 1 0 C1.28875 1.093125 1.5775 2.18625 1.875 3.3125 C2.81893204 7.04013845 2.81893204 7.04013845 5 10 C1.125 9.125 1.125 9.125 0 8 C-0.14115161 5.32941149 -0.04247107 2.67567762 0 0 Z " fill="#A9CD5C" transform="translate(33,20)"/>
<path d="M0 0 C0.33 0 0.66 0 1 0 C1.1546875 1.8871875 1.1546875 1.8871875 1.3125 3.8125 C1.64858808 6.60499657 1.80025876 7.74433121 3.5625 10 C4.036875 10.33 4.51125 10.66 5 11 C3.35 10.67 1.7 10.34 0 10 C0 6.7 0 3.4 0 0 Z " fill="#ADCF63" transform="translate(65,20)"/>
</svg>
